<svg width="4950" height="4950" viewBox="0 0 4950 4950" fill="none" xmlns="http://www.w3.org/2000/svg">
<rect x="1299.13" y="3721.62" width="25" height="100" rx="12.5" transform="rotate(-45 1299.13 3721.62)" fill="#CBC3E2"/>
<rect x="1317.51" y="3792.33" width="25" height="100" rx="12.5" transform="rotate(-135 1317.51 3792.33)" fill="#CBC3E2"/>
<rect x="1440.55" y="3863.04" width="25" height="100" rx="12.5" transform="rotate(-45 1440.55 3863.04)" fill="#CBC3E2"/>
<rect x="1458.93" y="3933.75" width="25" height="100" rx="12.5" transform="rotate(-135 1458.93 3933.75)" fill="#CBC3E2"/>
<rect x="1581.97" y="4004.46" width="25" height="100" rx="12.5" transform="rotate(-45 1581.97 4004.46)" fill="#CBC3E2"/>
<rect x="1600.36" y="4075.17" width="25" height="100" rx="12.5" transform="rotate(-135 1600.36 4075.17)" fill="#CBC3E2"/>
<rect x="1723.39" y="4145.88" width="25" height="100" rx="12.5" transform="rotate(-45 1723.39 4145.88)" fill="#CBC3E2"/>
<rect x="1741.78" y="4216.59" width="25" height="100" rx="12.5" transform="rotate(-135 1741.78 4216.59)" fill="#CBC3E2"/>
<rect x="1864.81" y="4287.3" width="25" height="100" rx="12.5" transform="rotate(-45 1864.81 4287.3)" fill="#CBC3E2"/>
<rect x="1883.2" y="4358.01" width="25" height="100" rx="12.5" transform="rotate(-135 1883.2 4358.01)" fill="#CBC3E2"/>
<rect x="2006.23" y="4428.72" width="25" height="100" rx="12.5" transform="rotate(-45 2006.23 4428.72)" fill="#CBC3E2"/>
<rect x="2024.62" y="4499.44" width="25" height="100" rx="12.5" transform="rotate(-135 2024.62 4499.44)" fill="#CBC3E2"/>
<rect x="2147.66" y="4570.15" width="25" height="100" rx="12.5" transform="rotate(-45 2147.66 4570.15)" fill="#CBC3E2"/>
<rect x="2166.04" y="4640.86" width="25" height="100" rx="12.5" transform="rotate(-135 2166.04 4640.86)" fill="#CBC3E2"/>
<rect x="2289.08" y="4711.57" width="25" height="100" rx="12.5" transform="rotate(-45 2289.08 4711.57)" fill="#CBC3E2"/>
<rect x="2307.46" y="4782.28" width="25" height="100" rx="12.5" transform="rotate(-135 2307.46 4782.28)" fill="#CBC3E2"/>
<rect x="2430.5" y="4852.99" width="25" height="100" rx="12.5" transform="rotate(-45 2430.5 4852.99)" fill="#CBC3E2"/>
<rect x="2448.88" y="4923.7" width="25" height="100" rx="12.5" transform="rotate(-135 2448.88 4923.7)" fill="#CBC3E2"/>
<rect x="1440.55" y="3580.2" width="25" height="100" rx="12.5" transform="rotate(-45 1440.55 3580.2)" fill="#CBC3E2"/>
<rect x="1458.93" y="3650.91" width="25" height="100" rx="12.5" transform="rotate(-135 1458.93 3650.91)" fill="#CBC3E2"/>
<rect x="1581.97" y="3721.62" width="25" height="100" rx="12.5" transform="rotate(-45 1581.97 3721.62)" fill="#CBC3E2"/>
<rect x="1600.36" y="3792.33" width="25" height="100" rx="12.5" transform="rotate(-135 1600.36 3792.33)" fill="#CBC3E2"/>
<rect x="1723.39" y="3863.04" width="25" height="100" rx="12.5" transform="rotate(-45 1723.39 3863.04)" fill="#CBC3E2"/>
<rect x="1741.78" y="3933.75" width="25" height="100" rx="12.5" transform="rotate(-135 1741.78 3933.75)" fill="#CBC3E2"/>
<rect x="1864.81" y="4004.46" width="25" height="100" rx="12.5" transform="rotate(-45 1864.81 4004.46)" fill="#CBC3E2"/>
<rect x="1883.2" y="4075.17" width="25" height="100" rx="12.5" transform="rotate(-135 1883.2 4075.17)" fill="#CBC3E2"/>
<rect x="2006.23" y="4145.88" width="25" height="100" rx="12.5" transform="rotate(-45 2006.23 4145.88)" fill="#CBC3E2"/>
<rect x="2024.62" y="4216.59" width="25" height="100" rx="12.5" transform="rotate(-135 2024.62 4216.59)" fill="#CBC3E2"/>
<rect x="2147.66" y="4287.3" width="25" height="100" rx="12.5" transform="rotate(-45 2147.66 4287.3)" fill="#CBC3E2"/>
<rect x="2166.04" y="4358.01" width="25" height="100" rx="12.5" transform="rotate(-135 2166.04 4358.01)" fill="#CBC3E2"/>
<rect x="2289.08" y="4428.72" width="25" height="100" rx="12.5" transform="rotate(-45 2289.08 4428.72)" fill="#CBC3E2"/>
<rect x="2307.46" y="4499.44" width="25" height="100" rx="12.5" transform="rotate(-135 2307.46 4499.44)" fill="#CBC3E2"/>
<rect x="2430.5" y="4570.15" width="25" height="100" rx="12.5" transform="rotate(-45 2430.5 4570.15)" fill="#CBC3E2"/>
<rect x="2448.88" y="4640.86" width="25" height="100" rx="12.5" transform="rotate(-135 2448.88 4640.86)" fill="#CBC3E2"/>
<rect x="2571.92" y="4711.57" width="25" height="100" rx="12.5" transform="rotate(-45 2571.92 4711.57)" fill="#CBC3E2"/>
<rect x="2590.3" y="4782.28" width="25" height="100" rx="12.5" transform="rotate(-135 2590.3 4782.28)" fill="#CBC3E2"/>
<rect x="1581.97" y="3438.78" width="25" height="100" rx="12.5" transform="rotate(-45 1581.97 3438.78)" fill="#CBC3E2"/>
<rect x="1600.36" y="3509.49" width="25" height="100" rx="12.5" transform="rotate(-135 1600.36 3509.49)" fill="#CBC3E2"/>
<rect x="1723.39" y="3580.2" width="25" height="100" rx="12.5" transform="rotate(-45 1723.39 3580.2)" fill="#CBC3E2"/>
<rect x="1741.78" y="3650.91" width="25" height="100" rx="12.5" transform="rotate(-135 1741.78 3650.91)" fill="#CBC3E2"/>
<rect x="1864.81" y="3721.62" width="25" height="100" rx="12.5" transform="rotate(-45 1864.81 3721.62)" fill="#CBC3E2"/>
<rect x="1883.2" y="3792.33" width="25" height="100" rx="12.5" transform="rotate(-135 1883.2 3792.33)" fill="#CBC3E2"/>
<rect x="2006.23" y="3863.04" width="25" height="100" rx="12.5" transform="rotate(-45 2006.23 3863.04)" fill="#CBC3E2"/>
<rect x="2024.62" y="3933.75" width="25" height="100" rx="12.5" transform="rotate(-135 2024.62 3933.75)" fill="#CBC3E2"/>
<rect x="2147.66" y="4004.46" width="25" height="100" rx="12.5" transform="rotate(-45 2147.66 4004.46)" fill="#CBC3E2"/>
<rect x="2166.04" y="4075.17" width="25" height="100" rx="12.5" transform="rotate(-135 2166.04 4075.17)" fill="#CBC3E2"/>
<rect x="2289.08" y="4145.88" width="25" height="100" rx="12.5" transform="rotate(-45 2289.08 4145.88)" fill="#CBC3E2"/>
<rect x="2307.46" y="4216.59" width="25" height="100" rx="12.5" transform="rotate(-135 2307.46 4216.59)" fill="#CBC3E2"/>
<rect x="2430.5" y="4287.3" width="25" height="100" rx="12.5" transform="rotate(-45 2430.5 4287.3)" fill="#CBC3E2"/>
<rect x="2448.88" y="4358.01" width="25" height="100" rx="12.5" transform="rotate(-135 2448.88 4358.01)" fill="#CBC3E2"/>
<rect x="2571.92" y="4428.72" width="25" height="100" rx="12.5" transform="rotate(-45 2571.92 4428.72)" fill="#CBC3E2"/>
<rect x="2590.3" y="4499.44" width="25" height="100" rx="12.5" transform="rotate(-135 2590.3 4499.44)" fill="#CBC3E2"/>
<rect x="2713.34" y="4570.15" width="25" height="100" rx="12.5" transform="rotate(-45 2713.34 4570.15)" fill="#CBC3E2"/>
<rect x="2731.73" y="4640.86" width="25" height="100" rx="12.5" transform="rotate(-135 2731.73 4640.86)" fill="#CBC3E2"/>
<rect x="1723.39" y="3297.35" width="25" height="100" rx="12.5" transform="rotate(-45 1723.39 3297.35)" fill="#CBC3E2"/>
<rect x="1741.78" y="3368.06" width="25" height="100" rx="12.5" transform="rotate(-135 1741.78 3368.06)" fill="#CBC3E2"/>
<rect x="1864.81" y="3438.78" width="25" height="100" rx="12.5" transform="rotate(-45 1864.81 3438.78)" fill="#CBC3E2"/>
<rect x="1883.2" y="3509.49" width="25" height="100" rx="12.5" transform="rotate(-135 1883.2 3509.49)" fill="#CBC3E2"/>
<rect x="2006.23" y="3580.2" width="25" height="100" rx="12.5" transform="rotate(-45 2006.23 3580.2)" fill="#CBC3E2"/>
<rect x="2024.62" y="3650.91" width="25" height="100" rx="12.5" transform="rotate(-135 2024.62 3650.91)" fill="#CBC3E2"/>
<rect x="2147.66" y="3721.62" width="25" height="100" rx="12.5" transform="rotate(-45 2147.66 3721.62)" fill="#CBC3E2"/>
<rect x="2166.04" y="3792.33" width="25" height="100" rx="12.5" transform="rotate(-135 2166.04 3792.33)" fill="#CBC3E2"/>
<rect x="2289.08" y="3863.04" width="25" height="100" rx="12.5" transform="rotate(-45 2289.08 3863.04)" fill="#CBC3E2"/>
<rect x="2307.46" y="3933.75" width="25" height="100" rx="12.5" transform="rotate(-135 2307.46 3933.75)" fill="#CBC3E2"/>
<rect x="2430.5" y="4004.46" width="25" height="100" rx="12.5" transform="rotate(-45 2430.5 4004.46)" fill="#CBC3E2"/>
<rect x="2448.88" y="4075.17" width="25" height="100" rx="12.5" transform="rotate(-135 2448.88 4075.17)" fill="#CBC3E2"/>
<rect x="2571.92" y="4145.88" width="25" height="100" rx="12.5" transform="rotate(-45 2571.92 4145.88)" fill="#CBC3E2"/>
<rect x="2590.3" y="4216.59" width="25" height="100" rx="12.5" transform="rotate(-135 2590.3 4216.59)" fill="#CBC3E2"/>
<rect x="2713.34" y="4287.3" width="25" height="100" rx="12.5" transform="rotate(-45 2713.34 4287.3)" fill="#CBC3E2"/>
<rect x="2731.73" y="4358.01" width="25" height="100" rx="12.5" transform="rotate(-135 2731.73 4358.01)" fill="#CBC3E2"/>
<rect x="2854.76" y="4428.72" width="25" height="100" rx="12.5" transform="rotate(-45 2854.76 4428.72)" fill="#CBC3E2"/>
<rect x="2873.15" y="4499.44" width="25" height="100" rx="12.5" transform="rotate(-135 2873.15 4499.44)" fill="#CBC3E2"/>
<rect x="1864.81" y="3155.93" width="25" height="100" rx="12.5" transform="rotate(-45 1864.81 3155.93)" fill="#CBC3E2"/>
<rect x="1883.2" y="3226.64" width="25" height="100" rx="12.5" transform="rotate(-135 1883.2 3226.64)" fill="#CBC3E2"/>
<rect x="2006.23" y="3297.35" width="25" height="100" rx="12.5" transform="rotate(-45 2006.23 3297.35)" fill="#CBC3E2"/>
<rect x="2024.62" y="3368.06" width="25" height="100" rx="12.5" transform="rotate(-135 2024.62 3368.06)" fill="#CBC3E2"/>
<rect x="2147.66" y="3438.78" width="25" height="100" rx="12.5" transform="rotate(-45 2147.66 3438.78)" fill="#CBC3E2"/>
<rect x="2166.04" y="3509.49" width="25" height="100" rx="12.5" transform="rotate(-135 2166.04 3509.49)" fill="#CBC3E2"/>
<rect x="2289.08" y="3580.2" width="25" height="100" rx="12.5" transform="rotate(-45 2289.08 3580.2)" fill="#CBC3E2"/>
<rect x="2307.46" y="3650.91" width="25" height="100" rx="12.5" transform="rotate(-135 2307.46 3650.91)" fill="#CBC3E2"/>
<rect x="2430.5" y="3721.62" width="25" height="100" rx="12.5" transform="rotate(-45 2430.5 3721.62)" fill="#CBC3E2"/>
<rect x="2448.88" y="3792.33" width="25" height="100" rx="12.5" transform="rotate(-135 2448.88 3792.33)" fill="#CBC3E2"/>
<rect x="2571.92" y="3863.04" width="25" height="100" rx="12.5" transform="rotate(-45 2571.92 3863.04)" fill="#CBC3E2"/>
<rect x="2590.3" y="3933.75" width="25" height="100" rx="12.5" transform="rotate(-135 2590.3 3933.75)" fill="#CBC3E2"/>
<rect x="2713.34" y="4004.46" width="25" height="100" rx="12.5" transform="rotate(-45 2713.34 4004.46)" fill="#CBC3E2"/>
<rect x="2731.73" y="4075.17" width="25" height="100" rx="12.5" transform="rotate(-135 2731.73 4075.17)" fill="#CBC3E2"/>
<rect x="2854.76" y="4145.88" width="25" height="100" rx="12.5" transform="rotate(-45 2854.76 4145.88)" fill="#CBC3E2"/>
<rect x="2873.15" y="4216.59" width="25" height="100" rx="12.5" transform="rotate(-135 2873.15 4216.59)" fill="#CBC3E2"/>
<rect x="2996.18" y="4287.3" width="25" height="100" rx="12.5" transform="rotate(-45 2996.18 4287.3)" fill="#CBC3E2"/>
<rect x="3014.57" y="4358.01" width="25" height="100" rx="12.5" transform="rotate(-135 3014.57 4358.01)" fill="#CBC3E2"/>
<rect x="2006.23" y="3014.51" width="25" height="100" rx="12.5" transform="rotate(-45 2006.23 3014.51)" fill="#CBC3E2"/>
<rect x="2024.62" y="3085.22" width="25" height="100" rx="12.5" transform="rotate(-135 2024.62 3085.22)" fill="#CBC3E2"/>
<rect x="2147.66" y="3155.93" width="25" height="100" rx="12.5" transform="rotate(-45 2147.66 3155.93)" fill="#CBC3E2"/>
<rect x="2166.04" y="3226.64" width="25" height="100" rx="12.5" transform="rotate(-135 2166.04 3226.64)" fill="#CBC3E2"/>
<rect x="2289.08" y="3297.35" width="25" height="100" rx="12.5" transform="rotate(-45 2289.08 3297.35)" fill="#CBC3E2"/>
<rect x="2307.46" y="3368.06" width="25" height="100" rx="12.5" transform="rotate(-135 2307.46 3368.06)" fill="#CBC3E2"/>
<rect x="2430.5" y="3438.78" width="25" height="100" rx="12.5" transform="rotate(-45 2430.5 3438.78)" fill="#CBC3E2"/>
<rect x="2448.88" y="3509.49" width="25" height="100" rx="12.5" transform="rotate(-135 2448.88 3509.49)" fill="#CBC3E2"/>
<rect x="2571.92" y="3580.2" width="25" height="100" rx="12.5" transform="rotate(-45 2571.92 3580.2)" fill="#CBC3E2"/>
<rect x="2590.3" y="3650.91" width="25" height="100" rx="12.5" transform="rotate(-135 2590.3 3650.91)" fill="#CBC3E2"/>
<rect x="2713.34" y="3721.62" width="25" height="100" rx="12.5" transform="rotate(-45 2713.34 3721.62)" fill="#CBC3E2"/>
<rect x="2731.73" y="3792.33" width="25" height="100" rx="12.5" transform="rotate(-135 2731.73 3792.33)" fill="#CBC3E2"/>
<rect x="2854.76" y="3863.04" width="25" height="100" rx="12.5" transform="rotate(-45 2854.76 3863.04)" fill="#CBC3E2"/>
<rect x="2873.15" y="3933.75" width="25" height="100" rx="12.5" transform="rotate(-135 2873.15 3933.75)" fill="#CBC3E2"/>
<rect x="2996.18" y="4004.46" width="25" height="100" rx="12.5" transform="rotate(-45 2996.18 4004.46)" fill="#CBC3E2"/>
<rect x="3014.57" y="4075.17" width="25" height="100" rx="12.5" transform="rotate(-135 3014.57 4075.17)" fill="#CBC3E2"/>
<rect x="3137.61" y="4145.88" width="25" height="100" rx="12.5" transform="rotate(-45 3137.61 4145.88)" fill="#CBC3E2"/>
<rect x="3155.99" y="4216.59" width="25" height="100" rx="12.5" transform="rotate(-135 3155.99 4216.59)" fill="#CBC3E2"/>
<rect x="2147.66" y="2873.09" width="25" height="100" rx="12.5" transform="rotate(-45 2147.66 2873.09)" fill="#CBC3E2"/>
<rect x="2166.04" y="2943.8" width="25" height="100" rx="12.5" transform="rotate(-135 2166.04 2943.8)" fill="#CBC3E2"/>
<rect x="2289.08" y="3014.51" width="25" height="100" rx="12.5" transform="rotate(-45 2289.08 3014.51)" fill="#CBC3E2"/>
<rect x="2307.46" y="3085.22" width="25" height="100" rx="12.5" transform="rotate(-135 2307.46 3085.22)" fill="#CBC3E2"/>
<rect x="2430.5" y="3155.93" width="25" height="100" rx="12.5" transform="rotate(-45 2430.5 3155.93)" fill="#CBC3E2"/>
<rect x="2448.88" y="3226.64" width="25" height="100" rx="12.5" transform="rotate(-135 2448.88 3226.64)" fill="#CBC3E2"/>
<rect x="2571.92" y="3297.35" width="25" height="100" rx="12.5" transform="rotate(-45 2571.92 3297.35)" fill="#CBC3E2"/>
<rect x="2590.3" y="3368.06" width="25" height="100" rx="12.5" transform="rotate(-135 2590.3 3368.06)" fill="#CBC3E2"/>
<rect x="2713.34" y="3438.78" width="25" height="100" rx="12.5" transform="rotate(-45 2713.34 3438.78)" fill="#CBC3E2"/>
<rect x="2731.73" y="3509.49" width="25" height="100" rx="12.5" transform="rotate(-135 2731.73 3509.49)" fill="#CBC3E2"/>
<rect x="2854.76" y="3580.2" width="25" height="100" rx="12.5" transform="rotate(-45 2854.76 3580.2)" fill="#CBC3E2"/>
<rect x="2873.15" y="3650.91" width="25" height="100" rx="12.5" transform="rotate(-135 2873.15 3650.91)" fill="#CBC3E2"/>
<rect x="2996.18" y="3721.62" width="25" height="100" rx="12.5" transform="rotate(-45 2996.18 3721.62)" fill="#CBC3E2"/>
<rect x="3014.57" y="3792.33" width="25" height="100" rx="12.5" transform="rotate(-135 3014.57 3792.33)" fill="#CBC3E2"/>
<rect x="3137.61" y="3863.04" width="25" height="100" rx="12.5" transform="rotate(-45 3137.61 3863.04)" fill="#CBC3E2"/>
<rect x="3155.99" y="3933.75" width="25" height="100" rx="12.5" transform="rotate(-135 3155.99 3933.75)" fill="#CBC3E2"/>
<rect x="3279.03" y="4004.46" width="25" height="100" rx="12.5" transform="rotate(-45 3279.03 4004.46)" fill="#CBC3E2"/>
<rect x="3297.41" y="4075.17" width="25" height="100" rx="12.5" transform="rotate(-135 3297.41 4075.17)" fill="#CBC3E2"/>
<rect x="2289.08" y="2731.67" width="25" height="100" rx="12.5" transform="rotate(-45 2289.08 2731.67)" fill="#CBC3E2"/>
<rect x="2307.46" y="2802.38" width="25" height="100" rx="12.5" transform="rotate(-135 2307.46 2802.38)" fill="#CBC3E2"/>
<rect x="2430.5" y="2873.09" width="25" height="100" rx="12.5" transform="rotate(-45 2430.5 2873.09)" fill="#CBC3E2"/>
<rect x="2448.88" y="2943.8" width="25" height="100" rx="12.5" transform="rotate(-135 2448.88 2943.8)" fill="#CBC3E2"/>
<rect x="2571.92" y="3014.51" width="25" height="100" rx="12.5" transform="rotate(-45 2571.92 3014.51)" fill="#CBC3E2"/>
<rect x="2590.3" y="3085.22" width="25" height="100" rx="12.5" transform="rotate(-135 2590.3 3085.22)" fill="#CBC3E2"/>
<rect x="2713.34" y="3155.93" width="25" height="100" rx="12.5" transform="rotate(-45 2713.34 3155.93)" fill="#CBC3E2"/>
<rect x="2731.73" y="3226.64" width="25" height="100" rx="12.5" transform="rotate(-135 2731.73 3226.64)" fill="#CBC3E2"/>
<rect x="2854.76" y="3297.35" width="25" height="100" rx="12.5" transform="rotate(-45 2854.76 3297.35)" fill="#CBC3E2"/>
<rect x="2873.15" y="3368.06" width="25" height="100" rx="12.5" transform="rotate(-135 2873.15 3368.06)" fill="#CBC3E2"/>
<rect x="2996.18" y="3438.78" width="25" height="100" rx="12.5" transform="rotate(-45 2996.18 3438.78)" fill="#CBC3E2"/>
<rect x="3014.57" y="3509.49" width="25" height="100" rx="12.5" transform="rotate(-135 3014.57 3509.49)" fill="#CBC3E2"/>
<rect x="3137.61" y="3580.2" width="25" height="100" rx="12.5" transform="rotate(-45 3137.61 3580.2)" fill="#CBC3E2"/>
<rect x="3155.99" y="3650.91" width="25" height="100" rx="12.5" transform="rotate(-135 3155.99 3650.91)" fill="#CBC3E2"/>
<rect x="3279.03" y="3721.62" width="25" height="100" rx="12.5" transform="rotate(-45 3279.03 3721.62)" fill="#CBC3E2"/>
<rect x="3297.41" y="3792.33" width="25" height="100" rx="12.5" transform="rotate(-135 3297.41 3792.33)" fill="#CBC3E2"/>
<rect x="3420.45" y="3863.04" width="25" height="100" rx="12.5" transform="rotate(-45 3420.45 3863.04)" fill="#CBC3E2"/>
<rect x="3438.83" y="3933.75" width="25" height="100" rx="12.5" transform="rotate(-135 3438.83 3933.75)" fill="#CBC3E2"/>
<rect x="2430.5" y="2590.25" width="25" height="100" rx="12.5" transform="rotate(-45 2430.5 2590.25)" fill="#CBC3E2"/>
<rect x="2448.88" y="2660.96" width="25" height="100" rx="12.5" transform="rotate(-135 2448.88 2660.96)" fill="#CBC3E2"/>
<rect x="2571.92" y="2731.67" width="25" height="100" rx="12.5" transform="rotate(-45 2571.92 2731.67)" fill="#CBC3E2"/>
<rect x="2590.3" y="2802.38" width="25" height="100" rx="12.5" transform="rotate(-135 2590.3 2802.38)" fill="#CBC3E2"/>
<rect x="2713.34" y="2873.09" width="25" height="100" rx="12.5" transform="rotate(-45 2713.34 2873.09)" fill="#CBC3E2"/>
<rect x="2731.73" y="2943.8" width="25" height="100" rx="12.5" transform="rotate(-135 2731.73 2943.8)" fill="#CBC3E2"/>
<rect x="2854.76" y="3014.51" width="25" height="100" rx="12.5" transform="rotate(-45 2854.76 3014.51)" fill="#CBC3E2"/>
<rect x="2873.15" y="3085.22" width="25" height="100" rx="12.5" transform="rotate(-135 2873.15 3085.22)" fill="#CBC3E2"/>
<rect x="2996.18" y="3155.93" width="25" height="100" rx="12.5" transform="rotate(-45 2996.18 3155.93)" fill="#CBC3E2"/>
<rect x="3014.57" y="3226.64" width="25" height="100" rx="12.5" transform="rotate(-135 3014.57 3226.64)" fill="#CBC3E2"/>
<rect x="3137.61" y="3297.35" width="25" height="100" rx="12.5" transform="rotate(-45 3137.61 3297.35)" fill="#CBC3E2"/>
<rect x="3155.99" y="3368.06" width="25" height="100" rx="12.5" transform="rotate(-135 3155.99 3368.06)" fill="#CBC3E2"/>
<rect x="3279.03" y="3438.78" width="25" height="100" rx="12.5" transform="rotate(-45 3279.03 3438.78)" fill="#CBC3E2"/>
<rect x="3297.41" y="3509.49" width="25" height="100" rx="12.5" transform="rotate(-135 3297.41 3509.49)" fill="#CBC3E2"/>
<rect x="3420.45" y="3580.2" width="25" height="100" rx="12.5" transform="rotate(-45 3420.45 3580.2)" fill="#CBC3E2"/>
<rect x="3438.83" y="3650.91" width="25" height="100" rx="12.5" transform="rotate(-135 3438.83 3650.91)" fill="#CBC3E2"/>
<rect x="3561.87" y="3721.62" width="25" height="100" rx="12.5" transform="rotate(-45 3561.87 3721.62)" fill="#CBC3E2"/>
<rect x="3580.25" y="3792.33" width="25" height="100" rx="12.5" transform="rotate(-135 3580.25 3792.33)" fill="#CBC3E2"/>
<rect x="26.2207" y="2448.83" width="25" height="100" rx="12.5" transform="rotate(-45 26.2207 2448.83)" fill="#CBC3E2"/>
<rect x="44.6055" y="2519.54" width="25" height="100" rx="12.5" transform="rotate(-135 44.6055 2519.54)" fill="#CBC3E2"/>
<rect x="167.642" y="2590.25" width="25" height="100" rx="12.5" transform="rotate(-45 167.642 2590.25)" fill="#CBC3E2"/>
<rect x="186.026" y="2660.96" width="25" height="100" rx="12.5" transform="rotate(-135 186.026 2660.96)" fill="#CBC3E2"/>
<rect x="309.063" y="2731.67" width="25" height="100" rx="12.5" transform="rotate(-45 309.063 2731.67)" fill="#CBC3E2"/>
<rect x="327.448" y="2802.38" width="25" height="100" rx="12.5" transform="rotate(-135 327.448 2802.38)" fill="#CBC3E2"/>
<rect x="450.484" y="2873.09" width="25" height="100" rx="12.5" transform="rotate(-45 450.484 2873.09)" fill="#CBC3E2"/>
<rect x="468.869" y="2943.8" width="25" height="100" rx="12.5" transform="rotate(-135 468.869 2943.8)" fill="#CBC3E2"/>
<rect x="591.906" y="3014.51" width="25" height="100" rx="12.5" transform="rotate(-45 591.906 3014.51)" fill="#CBC3E2"/>
<rect x="610.291" y="3085.22" width="25" height="100" rx="12.5" transform="rotate(-135 610.291 3085.22)" fill="#CBC3E2"/>
<rect x="733.327" y="3155.93" width="25" height="100" rx="12.5" transform="rotate(-45 733.327 3155.93)" fill="#CBC3E2"/>
<rect x="751.712" y="3226.64" width="25" height="100" rx="12.5" transform="rotate(-135 751.712 3226.64)" fill="#CBC3E2"/>
<rect x="874.749" y="3297.35" width="25" height="100" rx="12.5" transform="rotate(-45 874.749 3297.35)" fill="#CBC3E2"/>
<rect x="893.134" y="3368.06" width="25" height="100" rx="12.5" transform="rotate(-135 893.134 3368.06)" fill="#CBC3E2"/>
<rect x="1016.17" y="3438.78" width="25" height="100" rx="12.5" transform="rotate(-45 1016.17 3438.78)" fill="#CBC3E2"/>
<rect x="1034.55" y="3509.49" width="25" height="100" rx="12.5" transform="rotate(-135 1034.55 3509.49)" fill="#CBC3E2"/>
<rect x="1157.59" y="3580.2" width="25" height="100" rx="12.5" transform="rotate(-45 1157.59 3580.2)" fill="#CBC3E2"/>
<rect x="1175.98" y="3650.91" width="25" height="100" rx="12.5" transform="rotate(-135 1175.98 3650.91)" fill="#CBC3E2"/>
<rect x="167.642" y="2307.4" width="25" height="100" rx="12.5" transform="rotate(-45 167.642 2307.4)" fill="#CBC3E2"/>
<rect x="186.026" y="2378.12" width="25" height="100" rx="12.5" transform="rotate(-135 186.026 2378.12)" fill="#CBC3E2"/>
<rect x="309.063" y="2448.83" width="25" height="100" rx="12.5" transform="rotate(-45 309.063 2448.83)" fill="#CBC3E2"/>
<rect x="327.448" y="2519.54" width="25" height="100" rx="12.5" transform="rotate(-135 327.448 2519.54)" fill="#CBC3E2"/>
<rect x="450.484" y="2590.25" width="25" height="100" rx="12.5" transform="rotate(-45 450.484 2590.25)" fill="#CBC3E2"/>
<rect x="468.869" y="2660.96" width="25" height="100" rx="12.5" transform="rotate(-135 468.869 2660.96)" fill="#CBC3E2"/>
<rect x="591.906" y="2731.67" width="25" height="100" rx="12.5" transform="rotate(-45 591.906 2731.67)" fill="#CBC3E2"/>
<rect x="610.291" y="2802.38" width="25" height="100" rx="12.5" transform="rotate(-135 610.291 2802.38)" fill="#CBC3E2"/>
<rect x="733.327" y="2873.09" width="25" height="100" rx="12.5" transform="rotate(-45 733.327 2873.09)" fill="#CBC3E2"/>
<rect x="751.712" y="2943.8" width="25" height="100" rx="12.5" transform="rotate(-135 751.712 2943.8)" fill="#CBC3E2"/>
<rect x="874.749" y="3014.51" width="25" height="100" rx="12.5" transform="rotate(-45 874.749 3014.51)" fill="#CBC3E2"/>
<rect x="893.134" y="3085.22" width="25" height="100" rx="12.5" transform="rotate(-135 893.134 3085.22)" fill="#CBC3E2"/>
<rect x="1016.17" y="3155.93" width="25" height="100" rx="12.5" transform="rotate(-45 1016.17 3155.93)" fill="#CBC3E2"/>
<rect x="1034.55" y="3226.64" width="25" height="100" rx="12.5" transform="rotate(-135 1034.55 3226.64)" fill="#CBC3E2"/>
<rect x="1157.59" y="3297.35" width="25" height="100" rx="12.5" transform="rotate(-45 1157.59 3297.35)" fill="#CBC3E2"/>
<rect x="1175.98" y="3368.06" width="25" height="100" rx="12.5" transform="rotate(-135 1175.98 3368.06)" fill="#CBC3E2"/>
<rect x="1299.01" y="3438.78" width="25" height="100" rx="12.5" transform="rotate(-45 1299.01 3438.78)" fill="#CBC3E2"/>
<rect x="1317.4" y="3509.49" width="25" height="100" rx="12.5" transform="rotate(-135 1317.4 3509.49)" fill="#CBC3E2"/>
<rect x="309.063" y="2165.98" width="25" height="100" rx="12.5" transform="rotate(-45 309.063 2165.98)" fill="#CBC3E2"/>
<rect x="327.448" y="2236.69" width="25" height="100" rx="12.5" transform="rotate(-135 327.448 2236.69)" fill="#CBC3E2"/>
<rect x="450.484" y="2307.4" width="25" height="100" rx="12.5" transform="rotate(-45 450.484 2307.4)" fill="#CBC3E2"/>
<rect x="468.869" y="2378.12" width="25" height="100" rx="12.5" transform="rotate(-135 468.869 2378.12)" fill="#CBC3E2"/>
<rect x="591.906" y="2448.83" width="25" height="100" rx="12.5" transform="rotate(-45 591.906 2448.83)" fill="#CBC3E2"/>
<rect x="610.291" y="2519.54" width="25" height="100" rx="12.5" transform="rotate(-135 610.291 2519.54)" fill="#CBC3E2"/>
<rect x="733.327" y="2590.25" width="25" height="100" rx="12.5" transform="rotate(-45 733.327 2590.25)" fill="#CBC3E2"/>
<rect x="751.712" y="2660.96" width="25" height="100" rx="12.5" transform="rotate(-135 751.712 2660.96)" fill="#CBC3E2"/>
<rect x="874.749" y="2731.67" width="25" height="100" rx="12.5" transform="rotate(-45 874.749 2731.67)" fill="#CBC3E2"/>
<rect x="893.134" y="2802.38" width="25" height="100" rx="12.5" transform="rotate(-135 893.134 2802.38)" fill="#CBC3E2"/>
<rect x="1016.17" y="2873.09" width="25" height="100" rx="12.5" transform="rotate(-45 1016.17 2873.09)" fill="#CBC3E2"/>
<rect x="1034.55" y="2943.8" width="25" height="100" rx="12.5" transform="rotate(-135 1034.55 2943.8)" fill="#CBC3E2"/>
<rect x="1157.59" y="3014.51" width="25" height="100" rx="12.5" transform="rotate(-45 1157.59 3014.51)" fill="#CBC3E2"/>
<rect x="1175.98" y="3085.22" width="25" height="100" rx="12.5" transform="rotate(-135 1175.98 3085.22)" fill="#CBC3E2"/>
<rect x="1299.01" y="3155.93" width="25" height="100" rx="12.5" transform="rotate(-45 1299.01 3155.93)" fill="#CBC3E2"/>
<rect x="1317.4" y="3226.64" width="25" height="100" rx="12.5" transform="rotate(-135 1317.4 3226.64)" fill="#CBC3E2"/>
<rect x="1440.43" y="3297.35" width="25" height="100" rx="12.5" transform="rotate(-45 1440.43 3297.35)" fill="#CBC3E2"/>
<rect x="1458.82" y="3368.06" width="25" height="100" rx="12.5" transform="rotate(-135 1458.82 3368.06)" fill="#CBC3E2"/>
<rect x="450.484" y="2024.56" width="25" height="100" rx="12.5" transform="rotate(-45 450.484 2024.56)" fill="#CBC3E2"/>
<rect x="468.869" y="2095.27" width="25" height="100" rx="12.5" transform="rotate(-135 468.869 2095.27)" fill="#CBC3E2"/>
<rect x="591.906" y="2165.98" width="25" height="100" rx="12.5" transform="rotate(-45 591.906 2165.98)" fill="#CBC3E2"/>
<rect x="610.291" y="2236.69" width="25" height="100" rx="12.5" transform="rotate(-135 610.291 2236.69)" fill="#CBC3E2"/>
<rect x="733.327" y="2307.4" width="25" height="100" rx="12.5" transform="rotate(-45 733.327 2307.4)" fill="#CBC3E2"/>
<rect x="751.712" y="2378.12" width="25" height="100" rx="12.5" transform="rotate(-135 751.712 2378.12)" fill="#CBC3E2"/>
<rect x="874.749" y="2448.83" width="25" height="100" rx="12.5" transform="rotate(-45 874.749 2448.83)" fill="#CBC3E2"/>
<rect x="893.134" y="2519.54" width="25" height="100" rx="12.5" transform="rotate(-135 893.134 2519.54)" fill="#CBC3E2"/>
<rect x="1016.17" y="2590.25" width="25" height="100" rx="12.5" transform="rotate(-45 1016.17 2590.25)" fill="#CBC3E2"/>
<rect x="1034.55" y="2660.96" width="25" height="100" rx="12.5" transform="rotate(-135 1034.55 2660.96)" fill="#CBC3E2"/>
<rect x="1157.59" y="2731.67" width="25" height="100" rx="12.5" transform="rotate(-45 1157.59 2731.67)" fill="#CBC3E2"/>
<rect x="1175.98" y="2802.38" width="25" height="100" rx="12.5" transform="rotate(-135 1175.98 2802.38)" fill="#CBC3E2"/>
<rect x="1299.01" y="2873.09" width="25" height="100" rx="12.5" transform="rotate(-45 1299.01 2873.09)" fill="#CBC3E2"/>
<rect x="1317.4" y="2943.8" width="25" height="100" rx="12.5" transform="rotate(-135 1317.4 2943.8)" fill="#CBC3E2"/>
<rect x="1440.43" y="3014.51" width="25" height="100" rx="12.5" transform="rotate(-45 1440.43 3014.51)" fill="#CBC3E2"/>
<rect x="1458.82" y="3085.22" width="25" height="100" rx="12.5" transform="rotate(-135 1458.82 3085.22)" fill="#CBC3E2"/>
<rect x="1581.86" y="3155.93" width="25" height="100" rx="12.5" transform="rotate(-45 1581.86 3155.93)" fill="#CBC3E2"/>
<rect x="1600.24" y="3226.64" width="25" height="100" rx="12.5" transform="rotate(-135 1600.24 3226.64)" fill="#CBC3E2"/>
<rect x="591.906" y="1883.14" width="25" height="100" rx="12.5" transform="rotate(-45 591.906 1883.14)" fill="#CBC3E2"/>
<rect x="610.291" y="1953.85" width="25" height="100" rx="12.5" transform="rotate(-135 610.291 1953.85)" fill="#CBC3E2"/>
<rect x="733.327" y="2024.56" width="25" height="100" rx="12.5" transform="rotate(-45 733.327 2024.56)" fill="#CBC3E2"/>
<rect x="751.712" y="2095.27" width="25" height="100" rx="12.5" transform="rotate(-135 751.712 2095.27)" fill="#CBC3E2"/>
<rect x="874.749" y="2165.98" width="25" height="100" rx="12.5" transform="rotate(-45 874.749 2165.98)" fill="#CBC3E2"/>
<rect x="893.134" y="2236.69" width="25" height="100" rx="12.5" transform="rotate(-135 893.134 2236.69)" fill="#CBC3E2"/>
<rect x="1016.17" y="2307.4" width="25" height="100" rx="12.5" transform="rotate(-45 1016.17 2307.4)" fill="#CBC3E2"/>
<rect x="1034.55" y="2378.12" width="25" height="100" rx="12.5" transform="rotate(-135 1034.55 2378.12)" fill="#CBC3E2"/>
<rect x="1157.59" y="2448.83" width="25" height="100" rx="12.5" transform="rotate(-45 1157.59 2448.83)" fill="#CBC3E2"/>
<rect x="1175.98" y="2519.54" width="25" height="100" rx="12.5" transform="rotate(-135 1175.98 2519.54)" fill="#CBC3E2"/>
<rect x="1299.01" y="2590.25" width="25" height="100" rx="12.5" transform="rotate(-45 1299.01 2590.25)" fill="#CBC3E2"/>
<rect x="1317.4" y="2660.96" width="25" height="100" rx="12.5" transform="rotate(-135 1317.4 2660.96)" fill="#CBC3E2"/>
<rect x="1440.43" y="2731.67" width="25" height="100" rx="12.5" transform="rotate(-45 1440.43 2731.67)" fill="#CBC3E2"/>
<rect x="1458.82" y="2802.38" width="25" height="100" rx="12.5" transform="rotate(-135 1458.82 2802.38)" fill="#CBC3E2"/>
<rect x="1581.86" y="2873.09" width="25" height="100" rx="12.5" transform="rotate(-45 1581.86 2873.09)" fill="#CBC3E2"/>
<rect x="1600.24" y="2943.8" width="25" height="100" rx="12.5" transform="rotate(-135 1600.24 2943.8)" fill="#CBC3E2"/>
<rect x="1723.28" y="3014.51" width="25" height="100" rx="12.5" transform="rotate(-45 1723.28 3014.51)" fill="#CBC3E2"/>
<rect x="1741.66" y="3085.22" width="25" height="100" rx="12.5" transform="rotate(-135 1741.66 3085.22)" fill="#CBC3E2"/>
<rect x="733.327" y="1741.72" width="25" height="100" rx="12.5" transform="rotate(-45 733.327 1741.72)" fill="#CBC3E2"/>
<rect x="751.712" y="1812.43" width="25" height="100" rx="12.5" transform="rotate(-135 751.712 1812.43)" fill="#CBC3E2"/>
<rect x="874.749" y="1883.14" width="25" height="100" rx="12.5" transform="rotate(-45 874.749 1883.14)" fill="#CBC3E2"/>
<rect x="893.134" y="1953.85" width="25" height="100" rx="12.5" transform="rotate(-135 893.134 1953.85)" fill="#CBC3E2"/>
<rect x="1016.17" y="2024.56" width="25" height="100" rx="12.5" transform="rotate(-45 1016.17 2024.56)" fill="#CBC3E2"/>
<rect x="1034.55" y="2095.27" width="25" height="100" rx="12.5" transform="rotate(-135 1034.55 2095.27)" fill="#CBC3E2"/>
<rect x="1157.59" y="2165.98" width="25" height="100" rx="12.5" transform="rotate(-45 1157.59 2165.98)" fill="#CBC3E2"/>
<rect x="1175.98" y="2236.69" width="25" height="100" rx="12.5" transform="rotate(-135 1175.98 2236.69)" fill="#CBC3E2"/>
<rect x="1299.01" y="2307.4" width="25" height="100" rx="12.5" transform="rotate(-45 1299.01 2307.4)" fill="#CBC3E2"/>
<rect x="1317.4" y="2378.12" width="25" height="100" rx="12.5" transform="rotate(-135 1317.4 2378.12)" fill="#CBC3E2"/>
<rect x="1440.43" y="2448.83" width="25" height="100" rx="12.5" transform="rotate(-45 1440.43 2448.83)" fill="#CBC3E2"/>
<rect x="1458.82" y="2519.54" width="25" height="100" rx="12.5" transform="rotate(-135 1458.82 2519.54)" fill="#CBC3E2"/>
<rect x="1581.86" y="2590.25" width="25" height="100" rx="12.5" transform="rotate(-45 1581.86 2590.25)" fill="#CBC3E2"/>
<rect x="1600.24" y="2660.96" width="25" height="100" rx="12.5" transform="rotate(-135 1600.24 2660.96)" fill="#CBC3E2"/>
<rect x="1723.28" y="2731.67" width="25" height="100" rx="12.5" transform="rotate(-45 1723.28 2731.67)" fill="#CBC3E2"/>
<rect x="1741.66" y="2802.38" width="25" height="100" rx="12.5" transform="rotate(-135 1741.66 2802.38)" fill="#CBC3E2"/>
<rect x="1864.7" y="2873.09" width="25" height="100" rx="12.5" transform="rotate(-45 1864.7 2873.09)" fill="#CBC3E2"/>
<rect x="1883.08" y="2943.8" width="25" height="100" rx="12.5" transform="rotate(-135 1883.08 2943.8)" fill="#CBC3E2"/>
<rect x="874.749" y="1600.3" width="25" height="100" rx="12.5" transform="rotate(-45 874.749 1600.3)" fill="#CBC3E2"/>
<rect x="893.134" y="1671.01" width="25" height="100" rx="12.5" transform="rotate(-135 893.134 1671.01)" fill="#CBC3E2"/>
<rect x="1016.17" y="1741.72" width="25" height="100" rx="12.5" transform="rotate(-45 1016.17 1741.72)" fill="#CBC3E2"/>
<rect x="1034.55" y="1812.43" width="25" height="100" rx="12.5" transform="rotate(-135 1034.55 1812.43)" fill="#CBC3E2"/>
<rect x="1157.59" y="1883.14" width="25" height="100" rx="12.5" transform="rotate(-45 1157.59 1883.14)" fill="#CBC3E2"/>
<rect x="1175.98" y="1953.85" width="25" height="100" rx="12.5" transform="rotate(-135 1175.98 1953.85)" fill="#CBC3E2"/>
<rect x="1299.01" y="2024.56" width="25" height="100" rx="12.5" transform="rotate(-45 1299.01 2024.56)" fill="#CBC3E2"/>
<rect x="1317.4" y="2095.27" width="25" height="100" rx="12.5" transform="rotate(-135 1317.4 2095.27)" fill="#CBC3E2"/>
<rect x="1440.43" y="2165.98" width="25" height="100" rx="12.5" transform="rotate(-45 1440.43 2165.98)" fill="#CBC3E2"/>
<rect x="1458.82" y="2236.69" width="25" height="100" rx="12.5" transform="rotate(-135 1458.82 2236.69)" fill="#CBC3E2"/>
<rect x="1581.86" y="2307.4" width="25" height="100" rx="12.5" transform="rotate(-45 1581.86 2307.4)" fill="#CBC3E2"/>
<rect x="1600.24" y="2378.12" width="25" height="100" rx="12.5" transform="rotate(-135 1600.24 2378.12)" fill="#CBC3E2"/>
<rect x="1723.28" y="2448.83" width="25" height="100" rx="12.5" transform="rotate(-45 1723.28 2448.83)" fill="#CBC3E2"/>
<rect x="1741.66" y="2519.54" width="25" height="100" rx="12.5" transform="rotate(-135 1741.66 2519.54)" fill="#CBC3E2"/>
<rect x="1864.7" y="2590.25" width="25" height="100" rx="12.5" transform="rotate(-45 1864.7 2590.25)" fill="#CBC3E2"/>
<rect x="1883.08" y="2660.96" width="25" height="100" rx="12.5" transform="rotate(-135 1883.08 2660.96)" fill="#CBC3E2"/>
<rect x="2006.12" y="2731.67" width="25" height="100" rx="12.5" transform="rotate(-45 2006.12 2731.67)" fill="#CBC3E2"/>
<rect x="2024.5" y="2802.38" width="25" height="100" rx="12.5" transform="rotate(-135 2024.5 2802.38)" fill="#CBC3E2"/>
<rect x="1016.17" y="1458.88" width="25" height="100" rx="12.5" transform="rotate(-45 1016.17 1458.88)" fill="#CBC3E2"/>
<rect x="1034.55" y="1529.59" width="25" height="100" rx="12.5" transform="rotate(-135 1034.55 1529.59)" fill="#CBC3E2"/>
<rect x="1157.59" y="1600.3" width="25" height="100" rx="12.5" transform="rotate(-45 1157.59 1600.3)" fill="#CBC3E2"/>
<rect x="1175.98" y="1671.01" width="25" height="100" rx="12.5" transform="rotate(-135 1175.98 1671.01)" fill="#CBC3E2"/>
<rect x="1299.01" y="1741.72" width="25" height="100" rx="12.5" transform="rotate(-45 1299.01 1741.72)" fill="#CBC3E2"/>
<rect x="1317.4" y="1812.43" width="25" height="100" rx="12.5" transform="rotate(-135 1317.4 1812.43)" fill="#CBC3E2"/>
<rect x="1440.43" y="1883.14" width="25" height="100" rx="12.5" transform="rotate(-45 1440.43 1883.14)" fill="#CBC3E2"/>
<rect x="1458.82" y="1953.85" width="25" height="100" rx="12.5" transform="rotate(-135 1458.82 1953.85)" fill="#CBC3E2"/>
<rect x="1581.86" y="2024.56" width="25" height="100" rx="12.5" transform="rotate(-45 1581.86 2024.56)" fill="#CBC3E2"/>
<rect x="1600.24" y="2095.27" width="25" height="100" rx="12.5" transform="rotate(-135 1600.24 2095.27)" fill="#CBC3E2"/>
<rect x="1723.28" y="2165.98" width="25" height="100" rx="12.5" transform="rotate(-45 1723.28 2165.98)" fill="#CBC3E2"/>
<rect x="1741.66" y="2236.69" width="25" height="100" rx="12.5" transform="rotate(-135 1741.66 2236.69)" fill="#CBC3E2"/>
<rect x="1864.7" y="2307.4" width="25" height="100" rx="12.5" transform="rotate(-45 1864.7 2307.4)" fill="#CBC3E2"/>
<rect x="1883.08" y="2378.12" width="25" height="100" rx="12.5" transform="rotate(-135 1883.08 2378.12)" fill="#CBC3E2"/>
<rect x="2006.12" y="2448.83" width="25" height="100" rx="12.5" transform="rotate(-45 2006.12 2448.83)" fill="#CBC3E2"/>
<rect x="2024.5" y="2519.54" width="25" height="100" rx="12.5" transform="rotate(-135 2024.5 2519.54)" fill="#CBC3E2"/>
<rect x="2147.54" y="2590.25" width="25" height="100" rx="12.5" transform="rotate(-45 2147.54 2590.25)" fill="#CBC3E2"/>
<rect x="2165.93" y="2660.96" width="25" height="100" rx="12.5" transform="rotate(-135 2165.93 2660.96)" fill="#CBC3E2"/>
<rect x="1157.59" y="1317.46" width="25" height="100" rx="12.5" transform="rotate(-45 1157.59 1317.46)" fill="#CBC3E2"/>
<rect x="1175.98" y="1388.17" width="25" height="100" rx="12.5" transform="rotate(-135 1175.98 1388.17)" fill="#CBC3E2"/>
<rect x="1299.01" y="1458.88" width="25" height="100" rx="12.5" transform="rotate(-45 1299.01 1458.88)" fill="#CBC3E2"/>
<rect x="1317.4" y="1529.59" width="25" height="100" rx="12.5" transform="rotate(-135 1317.4 1529.59)" fill="#CBC3E2"/>
<rect x="1440.43" y="1600.3" width="25" height="100" rx="12.5" transform="rotate(-45 1440.43 1600.3)" fill="#CBC3E2"/>
<rect x="1458.82" y="1671.01" width="25" height="100" rx="12.5" transform="rotate(-135 1458.82 1671.01)" fill="#CBC3E2"/>
<rect x="1581.86" y="1741.72" width="25" height="100" rx="12.5" transform="rotate(-45 1581.86 1741.72)" fill="#CBC3E2"/>
<rect x="1600.24" y="1812.43" width="25" height="100" rx="12.5" transform="rotate(-135 1600.24 1812.43)" fill="#CBC3E2"/>
<rect x="1723.28" y="1883.14" width="25" height="100" rx="12.5" transform="rotate(-45 1723.28 1883.14)" fill="#CBC3E2"/>
<rect x="1741.66" y="1953.85" width="25" height="100" rx="12.5" transform="rotate(-135 1741.66 1953.85)" fill="#CBC3E2"/>
<rect x="1864.7" y="2024.56" width="25" height="100" rx="12.5" transform="rotate(-45 1864.7 2024.56)" fill="#CBC3E2"/>
<rect x="1883.08" y="2095.27" width="25" height="100" rx="12.5" transform="rotate(-135 1883.08 2095.27)" fill="#CBC3E2"/>
<rect x="2006.12" y="2165.98" width="25" height="100" rx="12.5" transform="rotate(-45 2006.12 2165.98)" fill="#CBC3E2"/>
<rect x="2024.5" y="2236.69" width="25" height="100" rx="12.5" transform="rotate(-135 2024.5 2236.69)" fill="#CBC3E2"/>
<rect x="2147.54" y="2307.4" width="25" height="100" rx="12.5" transform="rotate(-45 2147.54 2307.4)" fill="#CBC3E2"/>
<rect x="2165.93" y="2378.12" width="25" height="100" rx="12.5" transform="rotate(-135 2165.93 2378.12)" fill="#CBC3E2"/>
<rect x="2288.96" y="2448.83" width="25" height="100" rx="12.5" transform="rotate(-45 2288.96 2448.83)" fill="#CBC3E2"/>
<rect x="2307.35" y="2519.54" width="25" height="100" rx="12.5" transform="rotate(-135 2307.35 2519.54)" fill="#CBC3E2"/>
<rect x="2571.86" y="2448.77" width="25" height="100" rx="12.5" transform="rotate(-45 2571.86 2448.77)" fill="#CBC3E2"/>
<rect x="2590.25" y="2519.48" width="25" height="100" rx="12.5" transform="rotate(-135 2590.25 2519.48)" fill="#CBC3E2"/>
<rect x="2713.28" y="2590.19" width="25" height="100" rx="12.5" transform="rotate(-45 2713.28 2590.19)" fill="#CBC3E2"/>
<rect x="2731.67" y="2660.9" width="25" height="100" rx="12.5" transform="rotate(-135 2731.67 2660.9)" fill="#CBC3E2"/>
<rect x="2854.71" y="2731.61" width="25" height="100" rx="12.5" transform="rotate(-45 2854.71 2731.61)" fill="#CBC3E2"/>
<rect x="2873.09" y="2802.32" width="25" height="100" rx="12.5" transform="rotate(-135 2873.09 2802.32)" fill="#CBC3E2"/>
<rect x="2996.13" y="2873.03" width="25" height="100" rx="12.5" transform="rotate(-45 2996.13 2873.03)" fill="#CBC3E2"/>
<rect x="3014.51" y="2943.74" width="25" height="100" rx="12.5" transform="rotate(-135 3014.51 2943.74)" fill="#CBC3E2"/>
<rect x="3137.55" y="3014.45" width="25" height="100" rx="12.5" transform="rotate(-45 3137.55 3014.45)" fill="#CBC3E2"/>
<rect x="3155.93" y="3085.16" width="25" height="100" rx="12.5" transform="rotate(-135 3155.93 3085.16)" fill="#CBC3E2"/>
<rect x="3278.97" y="3155.88" width="25" height="100" rx="12.5" transform="rotate(-45 3278.97 3155.88)" fill="#CBC3E2"/>
<rect x="3297.35" y="3226.59" width="25" height="100" rx="12.5" transform="rotate(-135 3297.35 3226.59)" fill="#CBC3E2"/>
<rect x="3420.39" y="3297.3" width="25" height="100" rx="12.5" transform="rotate(-45 3420.39 3297.3)" fill="#CBC3E2"/>
<rect x="3438.78" y="3368.01" width="25" height="100" rx="12.5" transform="rotate(-135 3438.78 3368.01)" fill="#CBC3E2"/>
<rect x="3561.81" y="3438.72" width="25" height="100" rx="12.5" transform="rotate(-45 3561.81 3438.72)" fill="#CBC3E2"/>
<rect x="3580.2" y="3509.43" width="25" height="100" rx="12.5" transform="rotate(-135 3580.2 3509.43)" fill="#CBC3E2"/>
<rect x="3703.23" y="3580.14" width="25" height="100" rx="12.5" transform="rotate(-45 3703.23 3580.14)" fill="#CBC3E2"/>
<rect x="3721.62" y="3650.85" width="25" height="100" rx="12.5" transform="rotate(-135 3721.62 3650.85)" fill="#CBC3E2"/>
<rect x="2713.28" y="2307.35" width="25" height="100" rx="12.5" transform="rotate(-45 2713.28 2307.35)" fill="#CBC3E2"/>
<rect x="2731.67" y="2378.06" width="25" height="100" rx="12.5" transform="rotate(-135 2731.67 2378.06)" fill="#CBC3E2"/>
<rect x="2854.71" y="2448.77" width="25" height="100" rx="12.5" transform="rotate(-45 2854.71 2448.77)" fill="#CBC3E2"/>
<rect x="2873.09" y="2519.48" width="25" height="100" rx="12.5" transform="rotate(-135 2873.09 2519.48)" fill="#CBC3E2"/>
<rect x="2996.13" y="2590.19" width="25" height="100" rx="12.5" transform="rotate(-45 2996.13 2590.19)" fill="#CBC3E2"/>
<rect x="3014.51" y="2660.9" width="25" height="100" rx="12.5" transform="rotate(-135 3014.51 2660.9)" fill="#CBC3E2"/>
<rect x="3137.55" y="2731.61" width="25" height="100" rx="12.5" transform="rotate(-45 3137.55 2731.61)" fill="#CBC3E2"/>
<rect x="3155.93" y="2802.32" width="25" height="100" rx="12.5" transform="rotate(-135 3155.93 2802.32)" fill="#CBC3E2"/>
<rect x="3278.97" y="2873.03" width="25" height="100" rx="12.5" transform="rotate(-45 3278.97 2873.03)" fill="#CBC3E2"/>
<rect x="3297.35" y="2943.74" width="25" height="100" rx="12.5" transform="rotate(-135 3297.35 2943.74)" fill="#CBC3E2"/>
<rect x="3420.39" y="3014.45" width="25" height="100" rx="12.5" transform="rotate(-45 3420.39 3014.45)" fill="#CBC3E2"/>
<rect x="3438.78" y="3085.16" width="25" height="100" rx="12.5" transform="rotate(-135 3438.78 3085.16)" fill="#CBC3E2"/>
<rect x="3561.81" y="3155.88" width="25" height="100" rx="12.5" transform="rotate(-45 3561.81 3155.88)" fill="#CBC3E2"/>
<rect x="3580.2" y="3226.59" width="25" height="100" rx="12.5" transform="rotate(-135 3580.2 3226.59)" fill="#CBC3E2"/>
<rect x="3703.23" y="3297.3" width="25" height="100" rx="12.5" transform="rotate(-45 3703.23 3297.3)" fill="#CBC3E2"/>
<rect x="3721.62" y="3368.01" width="25" height="100" rx="12.5" transform="rotate(-135 3721.62 3368.01)" fill="#CBC3E2"/>
<rect x="3844.65" y="3438.72" width="25" height="100" rx="12.5" transform="rotate(-45 3844.65 3438.72)" fill="#CBC3E2"/>
<rect x="3863.04" y="3509.43" width="25" height="100" rx="12.5" transform="rotate(-135 3863.04 3509.43)" fill="#CBC3E2"/>
<rect x="2854.71" y="2165.93" width="25" height="100" rx="12.5" transform="rotate(-45 2854.71 2165.93)" fill="#CBC3E2"/>
<rect x="2873.09" y="2236.64" width="25" height="100" rx="12.5" transform="rotate(-135 2873.09 2236.64)" fill="#CBC3E2"/>
<rect x="2996.13" y="2307.35" width="25" height="100" rx="12.5" transform="rotate(-45 2996.13 2307.35)" fill="#CBC3E2"/>
<rect x="3014.51" y="2378.06" width="25" height="100" rx="12.5" transform="rotate(-135 3014.51 2378.06)" fill="#CBC3E2"/>
<rect x="3137.55" y="2448.77" width="25" height="100" rx="12.5" transform="rotate(-45 3137.55 2448.77)" fill="#CBC3E2"/>
<rect x="3155.93" y="2519.48" width="25" height="100" rx="12.5" transform="rotate(-135 3155.93 2519.48)" fill="#CBC3E2"/>
<rect x="3278.97" y="2590.19" width="25" height="100" rx="12.5" transform="rotate(-45 3278.97 2590.19)" fill="#CBC3E2"/>
<rect x="3297.35" y="2660.9" width="25" height="100" rx="12.5" transform="rotate(-135 3297.35 2660.9)" fill="#CBC3E2"/>
<rect x="3420.39" y="2731.61" width="25" height="100" rx="12.5" transform="rotate(-45 3420.39 2731.61)" fill="#CBC3E2"/>
<rect x="3438.78" y="2802.32" width="25" height="100" rx="12.5" transform="rotate(-135 3438.78 2802.32)" fill="#CBC3E2"/>
<rect x="3561.81" y="2873.03" width="25" height="100" rx="12.5" transform="rotate(-45 3561.81 2873.03)" fill="#CBC3E2"/>
<rect x="3580.2" y="2943.74" width="25" height="100" rx="12.5" transform="rotate(-135 3580.2 2943.74)" fill="#CBC3E2"/>
<rect x="3703.23" y="3014.45" width="25" height="100" rx="12.5" transform="rotate(-45 3703.23 3014.45)" fill="#CBC3E2"/>
<rect x="3721.62" y="3085.16" width="25" height="100" rx="12.5" transform="rotate(-135 3721.62 3085.16)" fill="#CBC3E2"/>
<rect x="3844.65" y="3155.88" width="25" height="100" rx="12.5" transform="rotate(-45 3844.65 3155.88)" fill="#CBC3E2"/>
<rect x="3863.04" y="3226.59" width="25" height="100" rx="12.5" transform="rotate(-135 3863.04 3226.59)" fill="#CBC3E2"/>
<rect x="3986.08" y="3297.3" width="25" height="100" rx="12.5" transform="rotate(-45 3986.08 3297.3)" fill="#CBC3E2"/>
<rect x="4004.46" y="3368.01" width="25" height="100" rx="12.5" transform="rotate(-135 4004.46 3368.01)" fill="#CBC3E2"/>
<rect x="2996.13" y="2024.5" width="25" height="100" rx="12.5" transform="rotate(-45 2996.13 2024.5)" fill="#CBC3E2"/>
<rect x="3014.51" y="2095.21" width="25" height="100" rx="12.5" transform="rotate(-135 3014.51 2095.21)" fill="#CBC3E2"/>
<rect x="3137.55" y="2165.93" width="25" height="100" rx="12.5" transform="rotate(-45 3137.55 2165.93)" fill="#CBC3E2"/>
<rect x="3155.93" y="2236.64" width="25" height="100" rx="12.5" transform="rotate(-135 3155.93 2236.64)" fill="#CBC3E2"/>
<rect x="3278.97" y="2307.35" width="25" height="100" rx="12.5" transform="rotate(-45 3278.97 2307.35)" fill="#CBC3E2"/>
<rect x="3297.35" y="2378.06" width="25" height="100" rx="12.5" transform="rotate(-135 3297.35 2378.06)" fill="#CBC3E2"/>
<rect x="3420.39" y="2448.77" width="25" height="100" rx="12.5" transform="rotate(-45 3420.39 2448.77)" fill="#CBC3E2"/>
<rect x="3438.78" y="2519.48" width="25" height="100" rx="12.5" transform="rotate(-135 3438.78 2519.48)" fill="#CBC3E2"/>
<rect x="3561.81" y="2590.19" width="25" height="100" rx="12.5" transform="rotate(-45 3561.81 2590.19)" fill="#CBC3E2"/>
<rect x="3580.2" y="2660.9" width="25" height="100" rx="12.5" transform="rotate(-135 3580.2 2660.9)" fill="#CBC3E2"/>
<rect x="3703.23" y="2731.61" width="25" height="100" rx="12.5" transform="rotate(-45 3703.23 2731.61)" fill="#CBC3E2"/>
<rect x="3721.62" y="2802.32" width="25" height="100" rx="12.5" transform="rotate(-135 3721.62 2802.32)" fill="#CBC3E2"/>
<rect x="3844.65" y="2873.03" width="25" height="100" rx="12.5" transform="rotate(-45 3844.65 2873.03)" fill="#CBC3E2"/>
<rect x="3863.04" y="2943.74" width="25" height="100" rx="12.5" transform="rotate(-135 3863.04 2943.74)" fill="#CBC3E2"/>
<rect x="3986.08" y="3014.45" width="25" height="100" rx="12.5" transform="rotate(-45 3986.08 3014.45)" fill="#CBC3E2"/>
<rect x="4004.46" y="3085.16" width="25" height="100" rx="12.5" transform="rotate(-135 4004.46 3085.16)" fill="#CBC3E2"/>
<rect x="4127.5" y="3155.88" width="25" height="100" rx="12.5" transform="rotate(-45 4127.5 3155.88)" fill="#CBC3E2"/>
<rect x="4145.88" y="3226.59" width="25" height="100" rx="12.5" transform="rotate(-135 4145.88 3226.59)" fill="#CBC3E2"/>
<rect x="3137.55" y="1883.08" width="25" height="100" rx="12.5" transform="rotate(-45 3137.55 1883.08)" fill="#CBC3E2"/>
<rect x="3155.93" y="1953.79" width="25" height="100" rx="12.5" transform="rotate(-135 3155.93 1953.79)" fill="#CBC3E2"/>
<rect x="3278.97" y="2024.5" width="25" height="100" rx="12.5" transform="rotate(-45 3278.97 2024.5)" fill="#CBC3E2"/>
<rect x="3297.35" y="2095.21" width="25" height="100" rx="12.5" transform="rotate(-135 3297.35 2095.21)" fill="#CBC3E2"/>
<rect x="3420.39" y="2165.93" width="25" height="100" rx="12.5" transform="rotate(-45 3420.39 2165.93)" fill="#CBC3E2"/>
<rect x="3438.78" y="2236.64" width="25" height="100" rx="12.5" transform="rotate(-135 3438.78 2236.64)" fill="#CBC3E2"/>
<rect x="3561.81" y="2307.35" width="25" height="100" rx="12.5" transform="rotate(-45 3561.81 2307.35)" fill="#CBC3E2"/>
<rect x="3580.2" y="2378.06" width="25" height="100" rx="12.5" transform="rotate(-135 3580.2 2378.06)" fill="#CBC3E2"/>
<rect x="3703.23" y="2448.77" width="25" height="100" rx="12.5" transform="rotate(-45 3703.23 2448.77)" fill="#CBC3E2"/>
<rect x="3721.62" y="2519.48" width="25" height="100" rx="12.5" transform="rotate(-135 3721.62 2519.48)" fill="#CBC3E2"/>
<rect x="3844.65" y="2590.19" width="25" height="100" rx="12.5" transform="rotate(-45 3844.65 2590.19)" fill="#CBC3E2"/>
<rect x="3863.04" y="2660.9" width="25" height="100" rx="12.5" transform="rotate(-135 3863.04 2660.9)" fill="#CBC3E2"/>
<rect x="3986.08" y="2731.61" width="25" height="100" rx="12.5" transform="rotate(-45 3986.08 2731.61)" fill="#CBC3E2"/>
<rect x="4004.46" y="2802.32" width="25" height="100" rx="12.5" transform="rotate(-135 4004.46 2802.32)" fill="#CBC3E2"/>
<rect x="4127.5" y="2873.03" width="25" height="100" rx="12.5" transform="rotate(-45 4127.5 2873.03)" fill="#CBC3E2"/>
<rect x="4145.88" y="2943.74" width="25" height="100" rx="12.5" transform="rotate(-135 4145.88 2943.74)" fill="#CBC3E2"/>
<rect x="4268.92" y="3014.45" width="25" height="100" rx="12.5" transform="rotate(-45 4268.92 3014.45)" fill="#CBC3E2"/>
<rect x="4287.3" y="3085.16" width="25" height="100" rx="12.5" transform="rotate(-135 4287.3 3085.16)" fill="#CBC3E2"/>
<rect x="3278.97" y="1741.66" width="25" height="100" rx="12.5" transform="rotate(-45 3278.97 1741.66)" fill="#CBC3E2"/>
<rect x="3297.35" y="1812.37" width="25" height="100" rx="12.5" transform="rotate(-135 3297.35 1812.37)" fill="#CBC3E2"/>
<rect x="3420.39" y="1883.08" width="25" height="100" rx="12.5" transform="rotate(-45 3420.39 1883.08)" fill="#CBC3E2"/>
<rect x="3438.78" y="1953.79" width="25" height="100" rx="12.5" transform="rotate(-135 3438.78 1953.79)" fill="#CBC3E2"/>
<rect x="3561.81" y="2024.5" width="25" height="100" rx="12.5" transform="rotate(-45 3561.81 2024.5)" fill="#CBC3E2"/>
<rect x="3580.2" y="2095.21" width="25" height="100" rx="12.5" transform="rotate(-135 3580.2 2095.21)" fill="#CBC3E2"/>
<rect x="3703.23" y="2165.93" width="25" height="100" rx="12.5" transform="rotate(-45 3703.23 2165.93)" fill="#CBC3E2"/>
<rect x="3721.62" y="2236.64" width="25" height="100" rx="12.5" transform="rotate(-135 3721.62 2236.64)" fill="#CBC3E2"/>
<rect x="3844.65" y="2307.35" width="25" height="100" rx="12.5" transform="rotate(-45 3844.65 2307.35)" fill="#CBC3E2"/>
<rect x="3863.04" y="2378.06" width="25" height="100" rx="12.5" transform="rotate(-135 3863.04 2378.06)" fill="#CBC3E2"/>
<rect x="3986.08" y="2448.77" width="25" height="100" rx="12.5" transform="rotate(-45 3986.08 2448.77)" fill="#CBC3E2"/>
<rect x="4004.46" y="2519.48" width="25" height="100" rx="12.5" transform="rotate(-135 4004.46 2519.48)" fill="#CBC3E2"/>
<rect x="4127.5" y="2590.19" width="25" height="100" rx="12.5" transform="rotate(-45 4127.5 2590.19)" fill="#CBC3E2"/>
<rect x="4145.88" y="2660.9" width="25" height="100" rx="12.5" transform="rotate(-135 4145.88 2660.9)" fill="#CBC3E2"/>
<rect x="4268.92" y="2731.61" width="25" height="100" rx="12.5" transform="rotate(-45 4268.92 2731.61)" fill="#CBC3E2"/>
<rect x="4287.3" y="2802.32" width="25" height="100" rx="12.5" transform="rotate(-135 4287.3 2802.32)" fill="#CBC3E2"/>
<rect x="4410.34" y="2873.03" width="25" height="100" rx="12.5" transform="rotate(-45 4410.34 2873.03)" fill="#CBC3E2"/>
<rect x="4428.72" y="2943.74" width="25" height="100" rx="12.5" transform="rotate(-135 4428.72 2943.74)" fill="#CBC3E2"/>
<rect x="3420.39" y="1600.24" width="25" height="100" rx="12.5" transform="rotate(-45 3420.39 1600.24)" fill="#CBC3E2"/>
<rect x="3438.78" y="1670.95" width="25" height="100" rx="12.5" transform="rotate(-135 3438.78 1670.95)" fill="#CBC3E2"/>
<rect x="3561.81" y="1741.66" width="25" height="100" rx="12.5" transform="rotate(-45 3561.81 1741.66)" fill="#CBC3E2"/>
<rect x="3580.2" y="1812.37" width="25" height="100" rx="12.5" transform="rotate(-135 3580.2 1812.37)" fill="#CBC3E2"/>
<rect x="3703.23" y="1883.08" width="25" height="100" rx="12.5" transform="rotate(-45 3703.23 1883.08)" fill="#CBC3E2"/>
<rect x="3721.62" y="1953.79" width="25" height="100" rx="12.5" transform="rotate(-135 3721.62 1953.79)" fill="#CBC3E2"/>
<rect x="3844.65" y="2024.5" width="25" height="100" rx="12.5" transform="rotate(-45 3844.65 2024.5)" fill="#CBC3E2"/>
<rect x="3863.04" y="2095.21" width="25" height="100" rx="12.5" transform="rotate(-135 3863.04 2095.21)" fill="#CBC3E2"/>
<rect x="3986.08" y="2165.93" width="25" height="100" rx="12.5" transform="rotate(-45 3986.08 2165.93)" fill="#CBC3E2"/>
<rect x="4004.46" y="2236.64" width="25" height="100" rx="12.5" transform="rotate(-135 4004.46 2236.64)" fill="#CBC3E2"/>
<rect x="4127.5" y="2307.35" width="25" height="100" rx="12.5" transform="rotate(-45 4127.5 2307.35)" fill="#CBC3E2"/>
<rect x="4145.88" y="2378.06" width="25" height="100" rx="12.5" transform="rotate(-135 4145.88 2378.06)" fill="#CBC3E2"/>
<rect x="4268.92" y="2448.77" width="25" height="100" rx="12.5" transform="rotate(-45 4268.92 2448.77)" fill="#CBC3E2"/>
<rect x="4287.3" y="2519.48" width="25" height="100" rx="12.5" transform="rotate(-135 4287.3 2519.48)" fill="#CBC3E2"/>
<rect x="4410.34" y="2590.19" width="25" height="100" rx="12.5" transform="rotate(-45 4410.34 2590.19)" fill="#CBC3E2"/>
<rect x="4428.72" y="2660.9" width="25" height="100" rx="12.5" transform="rotate(-135 4428.72 2660.9)" fill="#CBC3E2"/>
<rect x="4551.76" y="2731.61" width="25" height="100" rx="12.5" transform="rotate(-45 4551.76 2731.61)" fill="#CBC3E2"/>
<rect x="4570.14" y="2802.32" width="25" height="100" rx="12.5" transform="rotate(-135 4570.14 2802.32)" fill="#CBC3E2"/>
<rect x="3561.81" y="1458.82" width="25" height="100" rx="12.5" transform="rotate(-45 3561.81 1458.82)" fill="#CBC3E2"/>
<rect x="3580.2" y="1529.53" width="25" height="100" rx="12.5" transform="rotate(-135 3580.2 1529.53)" fill="#CBC3E2"/>
<rect x="3703.23" y="1600.24" width="25" height="100" rx="12.5" transform="rotate(-45 3703.23 1600.24)" fill="#CBC3E2"/>
<rect x="3721.62" y="1670.95" width="25" height="100" rx="12.5" transform="rotate(-135 3721.62 1670.95)" fill="#CBC3E2"/>
<rect x="3844.65" y="1741.66" width="25" height="100" rx="12.5" transform="rotate(-45 3844.65 1741.66)" fill="#CBC3E2"/>
<rect x="3863.04" y="1812.37" width="25" height="100" rx="12.5" transform="rotate(-135 3863.04 1812.37)" fill="#CBC3E2"/>
<rect x="3986.08" y="1883.08" width="25" height="100" rx="12.5" transform="rotate(-45 3986.08 1883.08)" fill="#CBC3E2"/>
<rect x="4004.46" y="1953.79" width="25" height="100" rx="12.5" transform="rotate(-135 4004.46 1953.79)" fill="#CBC3E2"/>
<rect x="4127.5" y="2024.5" width="25" height="100" rx="12.5" transform="rotate(-45 4127.5 2024.5)" fill="#CBC3E2"/>
<rect x="4145.88" y="2095.21" width="25" height="100" rx="12.5" transform="rotate(-135 4145.88 2095.21)" fill="#CBC3E2"/>
<rect x="4268.92" y="2165.93" width="25" height="100" rx="12.5" transform="rotate(-45 4268.92 2165.93)" fill="#CBC3E2"/>
<rect x="4287.3" y="2236.64" width="25" height="100" rx="12.5" transform="rotate(-135 4287.3 2236.64)" fill="#CBC3E2"/>
<rect x="4410.34" y="2307.35" width="25" height="100" rx="12.5" transform="rotate(-45 4410.34 2307.35)" fill="#CBC3E2"/>
<rect x="4428.72" y="2378.06" width="25" height="100" rx="12.5" transform="rotate(-135 4428.72 2378.06)" fill="#CBC3E2"/>
<rect x="4551.76" y="2448.77" width="25" height="100" rx="12.5" transform="rotate(-45 4551.76 2448.77)" fill="#CBC3E2"/>
<rect x="4570.14" y="2519.48" width="25" height="100" rx="12.5" transform="rotate(-135 4570.14 2519.48)" fill="#CBC3E2"/>
<rect x="4693.18" y="2590.19" width="25" height="100" rx="12.5" transform="rotate(-45 4693.18 2590.19)" fill="#CBC3E2"/>
<rect x="4711.57" y="2660.9" width="25" height="100" rx="12.5" transform="rotate(-135 4711.57 2660.9)" fill="#CBC3E2"/>
<rect x="3703.23" y="1317.4" width="25" height="100" rx="12.5" transform="rotate(-45 3703.23 1317.4)" fill="#CBC3E2"/>
<rect x="3721.62" y="1388.11" width="25" height="100" rx="12.5" transform="rotate(-135 3721.62 1388.11)" fill="#CBC3E2"/>
<rect x="3844.65" y="1458.82" width="25" height="100" rx="12.5" transform="rotate(-45 3844.65 1458.82)" fill="#CBC3E2"/>
<rect x="3863.04" y="1529.53" width="25" height="100" rx="12.5" transform="rotate(-135 3863.04 1529.53)" fill="#CBC3E2"/>
<rect x="3986.07" y="1600.24" width="25" height="100" rx="12.5" transform="rotate(-45 3986.07 1600.24)" fill="#CBC3E2"/>
<rect x="4004.46" y="1670.95" width="25" height="100" rx="12.5" transform="rotate(-135 4004.46 1670.95)" fill="#CBC3E2"/>
<rect x="4127.5" y="1741.66" width="25" height="100" rx="12.5" transform="rotate(-45 4127.5 1741.66)" fill="#CBC3E2"/>
<rect x="4145.88" y="1812.37" width="25" height="100" rx="12.5" transform="rotate(-135 4145.88 1812.37)" fill="#CBC3E2"/>
<rect x="4268.92" y="1883.08" width="25" height="100" rx="12.5" transform="rotate(-45 4268.92 1883.08)" fill="#CBC3E2"/>
<rect x="4287.3" y="1953.79" width="25" height="100" rx="12.5" transform="rotate(-135 4287.3 1953.79)" fill="#CBC3E2"/>
<rect x="4410.34" y="2024.5" width="25" height="100" rx="12.5" transform="rotate(-45 4410.34 2024.5)" fill="#CBC3E2"/>
<rect x="4428.72" y="2095.22" width="25" height="100" rx="12.5" transform="rotate(-135 4428.72 2095.22)" fill="#CBC3E2"/>
<rect x="4551.76" y="2165.93" width="25" height="100" rx="12.5" transform="rotate(-45 4551.76 2165.93)" fill="#CBC3E2"/>
<rect x="4570.14" y="2236.64" width="25" height="100" rx="12.5" transform="rotate(-135 4570.14 2236.64)" fill="#CBC3E2"/>
<rect x="4693.18" y="2307.35" width="25" height="100" rx="12.5" transform="rotate(-45 4693.18 2307.35)" fill="#CBC3E2"/>
<rect x="4711.57" y="2378.06" width="25" height="100" rx="12.5" transform="rotate(-135 4711.57 2378.06)" fill="#CBC3E2"/>
<rect x="4834.6" y="2448.77" width="25" height="100" rx="12.5" transform="rotate(-45 4834.6 2448.77)" fill="#CBC3E2"/>
<rect x="4852.99" y="2519.48" width="25" height="100" rx="12.5" transform="rotate(-135 4852.99 2519.48)" fill="#CBC3E2"/>
<rect x="1298.96" y="1175.98" width="25" height="100" rx="12.5" transform="rotate(-45 1298.96 1175.98)" fill="#CBC3E2"/>
<rect x="1317.34" y="1246.69" width="25" height="100" rx="12.5" transform="rotate(-135 1317.34 1246.69)" fill="#CBC3E2"/>
<rect x="1440.38" y="1317.4" width="25" height="100" rx="12.5" transform="rotate(-45 1440.38 1317.4)" fill="#CBC3E2"/>
<rect x="1458.76" y="1388.11" width="25" height="100" rx="12.5" transform="rotate(-135 1458.76 1388.11)" fill="#CBC3E2"/>
<rect x="1581.8" y="1458.82" width="25" height="100" rx="12.5" transform="rotate(-45 1581.8 1458.82)" fill="#CBC3E2"/>
<rect x="1600.18" y="1529.53" width="25" height="100" rx="12.5" transform="rotate(-135 1600.18 1529.53)" fill="#CBC3E2"/>
<rect x="1723.22" y="1600.24" width="25" height="100" rx="12.5" transform="rotate(-45 1723.22 1600.24)" fill="#CBC3E2"/>
<rect x="1741.6" y="1670.95" width="25" height="100" rx="12.5" transform="rotate(-135 1741.6 1670.95)" fill="#CBC3E2"/>
<rect x="1864.64" y="1741.66" width="25" height="100" rx="12.5" transform="rotate(-45 1864.64 1741.66)" fill="#CBC3E2"/>
<rect x="1883.03" y="1812.37" width="25" height="100" rx="12.5" transform="rotate(-135 1883.03 1812.37)" fill="#CBC3E2"/>
<rect x="2006.06" y="1883.08" width="25" height="100" rx="12.5" transform="rotate(-45 2006.06 1883.08)" fill="#CBC3E2"/>
<rect x="2024.45" y="1953.79" width="25" height="100" rx="12.5" transform="rotate(-135 2024.45 1953.79)" fill="#CBC3E2"/>
<rect x="2147.48" y="2024.5" width="25" height="100" rx="12.5" transform="rotate(-45 2147.48 2024.5)" fill="#CBC3E2"/>
<rect x="2165.87" y="2095.22" width="25" height="100" rx="12.5" transform="rotate(-135 2165.87 2095.22)" fill="#CBC3E2"/>
<rect x="2288.9" y="2165.93" width="25" height="100" rx="12.5" transform="rotate(-45 2288.9 2165.93)" fill="#CBC3E2"/>
<rect x="2307.29" y="2236.64" width="25" height="100" rx="12.5" transform="rotate(-135 2307.29 2236.64)" fill="#CBC3E2"/>
<rect x="2430.33" y="2307.35" width="25" height="100" rx="12.5" transform="rotate(-45 2430.33 2307.35)" fill="#CBC3E2"/>
<rect x="2448.71" y="2378.06" width="25" height="100" rx="12.5" transform="rotate(-135 2448.71 2378.06)" fill="#CBC3E2"/>
<rect x="1440.38" y="1034.55" width="25" height="100" rx="12.5" transform="rotate(-45 1440.38 1034.55)" fill="#CBC3E2"/>
<rect x="1458.76" y="1105.27" width="25" height="100" rx="12.5" transform="rotate(-135 1458.76 1105.27)" fill="#CBC3E2"/>
<rect x="1581.8" y="1175.98" width="25" height="100" rx="12.5" transform="rotate(-45 1581.8 1175.98)" fill="#CBC3E2"/>
<rect x="1600.18" y="1246.69" width="25" height="100" rx="12.5" transform="rotate(-135 1600.18 1246.69)" fill="#CBC3E2"/>
<rect x="1723.22" y="1317.4" width="25" height="100" rx="12.5" transform="rotate(-45 1723.22 1317.4)" fill="#CBC3E2"/>
<rect x="1741.6" y="1388.11" width="25" height="100" rx="12.5" transform="rotate(-135 1741.6 1388.11)" fill="#CBC3E2"/>
<rect x="1864.64" y="1458.82" width="25" height="100" rx="12.5" transform="rotate(-45 1864.64 1458.82)" fill="#CBC3E2"/>
<rect x="1883.03" y="1529.53" width="25" height="100" rx="12.5" transform="rotate(-135 1883.03 1529.53)" fill="#CBC3E2"/>
<rect x="2006.06" y="1600.24" width="25" height="100" rx="12.5" transform="rotate(-45 2006.06 1600.24)" fill="#CBC3E2"/>
<rect x="2024.45" y="1670.95" width="25" height="100" rx="12.5" transform="rotate(-135 2024.45 1670.95)" fill="#CBC3E2"/>
<rect x="2147.48" y="1741.66" width="25" height="100" rx="12.5" transform="rotate(-45 2147.48 1741.66)" fill="#CBC3E2"/>
<rect x="2165.87" y="1812.37" width="25" height="100" rx="12.5" transform="rotate(-135 2165.87 1812.37)" fill="#CBC3E2"/>
<rect x="2288.9" y="1883.08" width="25" height="100" rx="12.5" transform="rotate(-45 2288.9 1883.08)" fill="#CBC3E2"/>
<rect x="2307.29" y="1953.79" width="25" height="100" rx="12.5" transform="rotate(-135 2307.29 1953.79)" fill="#CBC3E2"/>
<rect x="2430.33" y="2024.5" width="25" height="100" rx="12.5" transform="rotate(-45 2430.33 2024.5)" fill="#CBC3E2"/>
<rect x="2448.71" y="2095.22" width="25" height="100" rx="12.5" transform="rotate(-135 2448.71 2095.22)" fill="#CBC3E2"/>
<rect x="2571.75" y="2165.93" width="25" height="100" rx="12.5" transform="rotate(-45 2571.75 2165.93)" fill="#CBC3E2"/>
<rect x="2590.13" y="2236.64" width="25" height="100" rx="12.5" transform="rotate(-135 2590.13 2236.64)" fill="#CBC3E2"/>
<rect x="1581.8" y="893.133" width="25" height="100" rx="12.5" transform="rotate(-45 1581.8 893.133)" fill="#CBC3E2"/>
<rect x="1600.18" y="963.844" width="25" height="100" rx="12.5" transform="rotate(-135 1600.18 963.844)" fill="#CBC3E2"/>
<rect x="1723.22" y="1034.55" width="25" height="100" rx="12.5" transform="rotate(-45 1723.22 1034.55)" fill="#CBC3E2"/>
<rect x="1741.6" y="1105.27" width="25" height="100" rx="12.5" transform="rotate(-135 1741.6 1105.27)" fill="#CBC3E2"/>
<rect x="1864.64" y="1175.98" width="25" height="100" rx="12.5" transform="rotate(-45 1864.64 1175.98)" fill="#CBC3E2"/>
<rect x="1883.03" y="1246.69" width="25" height="100" rx="12.5" transform="rotate(-135 1883.03 1246.69)" fill="#CBC3E2"/>
<rect x="2006.06" y="1317.4" width="25" height="100" rx="12.5" transform="rotate(-45 2006.06 1317.4)" fill="#CBC3E2"/>
<rect x="2024.45" y="1388.11" width="25" height="100" rx="12.5" transform="rotate(-135 2024.45 1388.11)" fill="#CBC3E2"/>
<rect x="2147.48" y="1458.82" width="25" height="100" rx="12.5" transform="rotate(-45 2147.48 1458.82)" fill="#CBC3E2"/>
<rect x="2165.87" y="1529.53" width="25" height="100" rx="12.5" transform="rotate(-135 2165.87 1529.53)" fill="#CBC3E2"/>
<rect x="2288.9" y="1600.24" width="25" height="100" rx="12.5" transform="rotate(-45 2288.9 1600.24)" fill="#CBC3E2"/>
<rect x="2307.29" y="1670.95" width="25" height="100" rx="12.5" transform="rotate(-135 2307.29 1670.95)" fill="#CBC3E2"/>
<rect x="2430.33" y="1741.66" width="25" height="100" rx="12.5" transform="rotate(-45 2430.33 1741.66)" fill="#CBC3E2"/>
<rect x="2448.71" y="1812.37" width="25" height="100" rx="12.5" transform="rotate(-135 2448.71 1812.37)" fill="#CBC3E2"/>
<rect x="2571.75" y="1883.08" width="25" height="100" rx="12.5" transform="rotate(-45 2571.75 1883.08)" fill="#CBC3E2"/>
<rect x="2590.13" y="1953.79" width="25" height="100" rx="12.5" transform="rotate(-135 2590.13 1953.79)" fill="#CBC3E2"/>
<rect x="2713.17" y="2024.5" width="25" height="100" rx="12.5" transform="rotate(-45 2713.17 2024.5)" fill="#CBC3E2"/>
<rect x="2731.55" y="2095.22" width="25" height="100" rx="12.5" transform="rotate(-135 2731.55 2095.22)" fill="#CBC3E2"/>
<rect x="1723.22" y="751.712" width="25" height="100" rx="12.5" transform="rotate(-45 1723.22 751.712)" fill="#CBC3E2"/>
<rect x="1741.6" y="822.423" width="25" height="100" rx="12.5" transform="rotate(-135 1741.6 822.423)" fill="#CBC3E2"/>
<rect x="1864.64" y="893.133" width="25" height="100" rx="12.5" transform="rotate(-45 1864.64 893.133)" fill="#CBC3E2"/>
<rect x="1883.03" y="963.844" width="25" height="100" rx="12.5" transform="rotate(-135 1883.03 963.844)" fill="#CBC3E2"/>
<rect x="2006.06" y="1034.55" width="25" height="100" rx="12.5" transform="rotate(-45 2006.06 1034.55)" fill="#CBC3E2"/>
<rect x="2024.45" y="1105.27" width="25" height="100" rx="12.5" transform="rotate(-135 2024.45 1105.27)" fill="#CBC3E2"/>
<rect x="2147.48" y="1175.98" width="25" height="100" rx="12.5" transform="rotate(-45 2147.48 1175.98)" fill="#CBC3E2"/>
<rect x="2165.87" y="1246.69" width="25" height="100" rx="12.5" transform="rotate(-135 2165.87 1246.69)" fill="#CBC3E2"/>
<rect x="2288.9" y="1317.4" width="25" height="100" rx="12.5" transform="rotate(-45 2288.9 1317.4)" fill="#CBC3E2"/>
<rect x="2307.29" y="1388.11" width="25" height="100" rx="12.5" transform="rotate(-135 2307.29 1388.11)" fill="#CBC3E2"/>
<rect x="2430.33" y="1458.82" width="25" height="100" rx="12.5" transform="rotate(-45 2430.33 1458.82)" fill="#CBC3E2"/>
<rect x="2448.71" y="1529.53" width="25" height="100" rx="12.5" transform="rotate(-135 2448.71 1529.53)" fill="#CBC3E2"/>
<rect x="2571.75" y="1600.24" width="25" height="100" rx="12.5" transform="rotate(-45 2571.75 1600.24)" fill="#CBC3E2"/>
<rect x="2590.13" y="1670.95" width="25" height="100" rx="12.5" transform="rotate(-135 2590.13 1670.95)" fill="#CBC3E2"/>
<rect x="2713.17" y="1741.66" width="25" height="100" rx="12.5" transform="rotate(-45 2713.17 1741.66)" fill="#CBC3E2"/>
<rect x="2731.55" y="1812.37" width="25" height="100" rx="12.5" transform="rotate(-135 2731.55 1812.37)" fill="#CBC3E2"/>
<rect x="2854.59" y="1883.08" width="25" height="100" rx="12.5" transform="rotate(-45 2854.59 1883.08)" fill="#CBC3E2"/>
<rect x="2872.97" y="1953.79" width="25" height="100" rx="12.5" transform="rotate(-135 2872.97 1953.79)" fill="#CBC3E2"/>
<rect x="1864.64" y="610.291" width="25" height="100" rx="12.5" transform="rotate(-45 1864.64 610.291)" fill="#CBC3E2"/>
<rect x="1883.03" y="681.001" width="25" height="100" rx="12.5" transform="rotate(-135 1883.03 681.001)" fill="#CBC3E2"/>
<rect x="2006.06" y="751.712" width="25" height="100" rx="12.5" transform="rotate(-45 2006.06 751.712)" fill="#CBC3E2"/>
<rect x="2024.45" y="822.423" width="25" height="100" rx="12.5" transform="rotate(-135 2024.45 822.423)" fill="#CBC3E2"/>
<rect x="2147.48" y="893.133" width="25" height="100" rx="12.5" transform="rotate(-45 2147.48 893.133)" fill="#CBC3E2"/>
<rect x="2165.87" y="963.844" width="25" height="100" rx="12.5" transform="rotate(-135 2165.87 963.844)" fill="#CBC3E2"/>
<rect x="2288.9" y="1034.55" width="25" height="100" rx="12.5" transform="rotate(-45 2288.9 1034.55)" fill="#CBC3E2"/>
<rect x="2307.29" y="1105.27" width="25" height="100" rx="12.5" transform="rotate(-135 2307.29 1105.27)" fill="#CBC3E2"/>
<rect x="2430.33" y="1175.98" width="25" height="100" rx="12.5" transform="rotate(-45 2430.33 1175.98)" fill="#CBC3E2"/>
<rect x="2448.71" y="1246.69" width="25" height="100" rx="12.5" transform="rotate(-135 2448.71 1246.69)" fill="#CBC3E2"/>
<rect x="2571.75" y="1317.4" width="25" height="100" rx="12.5" transform="rotate(-45 2571.75 1317.4)" fill="#CBC3E2"/>
<rect x="2590.13" y="1388.11" width="25" height="100" rx="12.5" transform="rotate(-135 2590.13 1388.11)" fill="#CBC3E2"/>
<rect x="2713.17" y="1458.82" width="25" height="100" rx="12.5" transform="rotate(-45 2713.17 1458.82)" fill="#CBC3E2"/>
<rect x="2731.55" y="1529.53" width="25" height="100" rx="12.5" transform="rotate(-135 2731.55 1529.53)" fill="#CBC3E2"/>
<rect x="2854.59" y="1600.24" width="25" height="100" rx="12.5" transform="rotate(-45 2854.59 1600.24)" fill="#CBC3E2"/>
<rect x="2872.97" y="1670.95" width="25" height="100" rx="12.5" transform="rotate(-135 2872.97 1670.95)" fill="#CBC3E2"/>
<rect x="2996.01" y="1741.66" width="25" height="100" rx="12.5" transform="rotate(-45 2996.01 1741.66)" fill="#CBC3E2"/>
<rect x="3014.4" y="1812.37" width="25" height="100" rx="12.5" transform="rotate(-135 3014.4 1812.37)" fill="#CBC3E2"/>
<rect x="2006.06" y="468.869" width="25" height="100" rx="12.5" transform="rotate(-45 2006.06 468.869)" fill="#CBC3E2"/>
<rect x="2024.45" y="539.58" width="25" height="100" rx="12.5" transform="rotate(-135 2024.45 539.58)" fill="#CBC3E2"/>
<rect x="2147.48" y="610.291" width="25" height="100" rx="12.5" transform="rotate(-45 2147.48 610.291)" fill="#CBC3E2"/>
<rect x="2165.87" y="681.001" width="25" height="100" rx="12.5" transform="rotate(-135 2165.87 681.001)" fill="#CBC3E2"/>
<rect x="2288.9" y="751.712" width="25" height="100" rx="12.5" transform="rotate(-45 2288.9 751.712)" fill="#CBC3E2"/>
<rect x="2307.29" y="822.423" width="25" height="100" rx="12.5" transform="rotate(-135 2307.29 822.423)" fill="#CBC3E2"/>
<rect x="2430.33" y="893.133" width="25" height="100" rx="12.5" transform="rotate(-45 2430.33 893.133)" fill="#CBC3E2"/>
<rect x="2448.71" y="963.844" width="25" height="100" rx="12.5" transform="rotate(-135 2448.71 963.844)" fill="#CBC3E2"/>
<rect x="2571.75" y="1034.55" width="25" height="100" rx="12.5" transform="rotate(-45 2571.75 1034.55)" fill="#CBC3E2"/>
<rect x="2590.13" y="1105.27" width="25" height="100" rx="12.5" transform="rotate(-135 2590.13 1105.27)" fill="#CBC3E2"/>
<rect x="2713.17" y="1175.98" width="25" height="100" rx="12.5" transform="rotate(-45 2713.17 1175.98)" fill="#CBC3E2"/>
<rect x="2731.55" y="1246.69" width="25" height="100" rx="12.5" transform="rotate(-135 2731.55 1246.69)" fill="#CBC3E2"/>
<rect x="2854.59" y="1317.4" width="25" height="100" rx="12.5" transform="rotate(-45 2854.59 1317.4)" fill="#CBC3E2"/>
<rect x="2872.97" y="1388.11" width="25" height="100" rx="12.5" transform="rotate(-135 2872.97 1388.11)" fill="#CBC3E2"/>
<rect x="2996.01" y="1458.82" width="25" height="100" rx="12.5" transform="rotate(-45 2996.01 1458.82)" fill="#CBC3E2"/>
<rect x="3014.4" y="1529.53" width="25" height="100" rx="12.5" transform="rotate(-135 3014.4 1529.53)" fill="#CBC3E2"/>
<rect x="3137.43" y="1600.24" width="25" height="100" rx="12.5" transform="rotate(-45 3137.43 1600.24)" fill="#CBC3E2"/>
<rect x="3155.82" y="1670.95" width="25" height="100" rx="12.5" transform="rotate(-135 3155.82 1670.95)" fill="#CBC3E2"/>
<rect x="2147.48" y="327.448" width="25" height="100" rx="12.5" transform="rotate(-45 2147.48 327.448)" fill="#CBC3E2"/>
<rect x="2165.87" y="398.159" width="25" height="100" rx="12.5" transform="rotate(-135 2165.87 398.159)" fill="#CBC3E2"/>
<rect x="2288.9" y="468.869" width="25" height="100" rx="12.5" transform="rotate(-45 2288.9 468.869)" fill="#CBC3E2"/>
<rect x="2307.29" y="539.58" width="25" height="100" rx="12.5" transform="rotate(-135 2307.29 539.58)" fill="#CBC3E2"/>
<rect x="2430.33" y="610.291" width="25" height="100" rx="12.5" transform="rotate(-45 2430.33 610.291)" fill="#CBC3E2"/>
<rect x="2448.71" y="681.001" width="25" height="100" rx="12.5" transform="rotate(-135 2448.71 681.001)" fill="#CBC3E2"/>
<rect x="2571.75" y="751.712" width="25" height="100" rx="12.5" transform="rotate(-45 2571.75 751.712)" fill="#CBC3E2"/>
<rect x="2590.13" y="822.423" width="25" height="100" rx="12.5" transform="rotate(-135 2590.13 822.423)" fill="#CBC3E2"/>
<rect x="2713.17" y="893.133" width="25" height="100" rx="12.5" transform="rotate(-45 2713.17 893.133)" fill="#CBC3E2"/>
<rect x="2731.55" y="963.844" width="25" height="100" rx="12.5" transform="rotate(-135 2731.55 963.844)" fill="#CBC3E2"/>
<rect x="2854.59" y="1034.55" width="25" height="100" rx="12.5" transform="rotate(-45 2854.59 1034.55)" fill="#CBC3E2"/>
<rect x="2872.97" y="1105.27" width="25" height="100" rx="12.5" transform="rotate(-135 2872.97 1105.27)" fill="#CBC3E2"/>
<rect x="2996.01" y="1175.98" width="25" height="100" rx="12.5" transform="rotate(-45 2996.01 1175.98)" fill="#CBC3E2"/>
<rect x="3014.4" y="1246.69" width="25" height="100" rx="12.5" transform="rotate(-135 3014.4 1246.69)" fill="#CBC3E2"/>
<rect x="3137.43" y="1317.4" width="25" height="100" rx="12.5" transform="rotate(-45 3137.43 1317.4)" fill="#CBC3E2"/>
<rect x="3155.82" y="1388.11" width="25" height="100" rx="12.5" transform="rotate(-135 3155.82 1388.11)" fill="#CBC3E2"/>
<rect x="3278.85" y="1458.82" width="25" height="100" rx="12.5" transform="rotate(-45 3278.85 1458.82)" fill="#CBC3E2"/>
<rect x="3297.24" y="1529.53" width="25" height="100" rx="12.5" transform="rotate(-135 3297.24 1529.53)" fill="#CBC3E2"/>
<rect x="2288.9" y="186.026" width="25" height="100" rx="12.5" transform="rotate(-45 2288.9 186.026)" fill="#CBC3E2"/>
<rect x="2307.29" y="256.737" width="25" height="100" rx="12.5" transform="rotate(-135 2307.29 256.737)" fill="#CBC3E2"/>
<rect x="2430.33" y="327.448" width="25" height="100" rx="12.5" transform="rotate(-45 2430.33 327.448)" fill="#CBC3E2"/>
<rect x="2448.71" y="398.159" width="25" height="100" rx="12.5" transform="rotate(-135 2448.71 398.159)" fill="#CBC3E2"/>
<rect x="2571.75" y="468.869" width="25" height="100" rx="12.5" transform="rotate(-45 2571.75 468.869)" fill="#CBC3E2"/>
<rect x="2590.13" y="539.58" width="25" height="100" rx="12.5" transform="rotate(-135 2590.13 539.58)" fill="#CBC3E2"/>
<rect x="2713.17" y="610.291" width="25" height="100" rx="12.5" transform="rotate(-45 2713.17 610.291)" fill="#CBC3E2"/>
<rect x="2731.55" y="681.001" width="25" height="100" rx="12.5" transform="rotate(-135 2731.55 681.001)" fill="#CBC3E2"/>
<rect x="2854.59" y="751.712" width="25" height="100" rx="12.5" transform="rotate(-45 2854.59 751.712)" fill="#CBC3E2"/>
<rect x="2872.97" y="822.423" width="25" height="100" rx="12.5" transform="rotate(-135 2872.97 822.423)" fill="#CBC3E2"/>
<rect x="2996.01" y="893.133" width="25" height="100" rx="12.5" transform="rotate(-45 2996.01 893.133)" fill="#CBC3E2"/>
<rect x="3014.4" y="963.844" width="25" height="100" rx="12.5" transform="rotate(-135 3014.4 963.844)" fill="#CBC3E2"/>
<rect x="3137.43" y="1034.55" width="25" height="100" rx="12.5" transform="rotate(-45 3137.43 1034.55)" fill="#CBC3E2"/>
<rect x="3155.82" y="1105.27" width="25" height="100" rx="12.5" transform="rotate(-135 3155.82 1105.27)" fill="#CBC3E2"/>
<rect x="3278.85" y="1175.98" width="25" height="100" rx="12.5" transform="rotate(-45 3278.85 1175.98)" fill="#CBC3E2"/>
<rect x="3297.24" y="1246.69" width="25" height="100" rx="12.5" transform="rotate(-135 3297.24 1246.69)" fill="#CBC3E2"/>
<rect x="3420.28" y="1317.4" width="25" height="100" rx="12.5" transform="rotate(-45 3420.28 1317.4)" fill="#CBC3E2"/>
<rect x="3438.66" y="1388.11" width="25" height="100" rx="12.5" transform="rotate(-135 3438.66 1388.11)" fill="#CBC3E2"/>
<rect x="2430.33" y="44.6055" width="25" height="100" rx="12.5" transform="rotate(-45 2430.33 44.6055)" fill="#CBC3E2"/>
<rect x="2448.71" y="115.316" width="25" height="100" rx="12.5" transform="rotate(-135 2448.71 115.316)" fill="#CBC3E2"/>
<rect x="2571.75" y="186.026" width="25" height="100" rx="12.5" transform="rotate(-45 2571.75 186.026)" fill="#CBC3E2"/>
<rect x="2590.13" y="256.737" width="25" height="100" rx="12.5" transform="rotate(-135 2590.13 256.737)" fill="#CBC3E2"/>
<rect x="2713.17" y="327.448" width="25" height="100" rx="12.5" transform="rotate(-45 2713.17 327.448)" fill="#CBC3E2"/>
<rect x="2731.55" y="398.159" width="25" height="100" rx="12.5" transform="rotate(-135 2731.55 398.159)" fill="#CBC3E2"/>
<rect x="2854.59" y="468.869" width="25" height="100" rx="12.5" transform="rotate(-45 2854.59 468.869)" fill="#CBC3E2"/>
<rect x="2872.97" y="539.58" width="25" height="100" rx="12.5" transform="rotate(-135 2872.97 539.58)" fill="#CBC3E2"/>
<rect x="2996.01" y="610.291" width="25" height="100" rx="12.5" transform="rotate(-45 2996.01 610.291)" fill="#CBC3E2"/>
<rect x="3014.4" y="681.001" width="25" height="100" rx="12.5" transform="rotate(-135 3014.4 681.001)" fill="#CBC3E2"/>
<rect x="3137.43" y="751.712" width="25" height="100" rx="12.5" transform="rotate(-45 3137.43 751.712)" fill="#CBC3E2"/>
<rect x="3155.82" y="822.423" width="25" height="100" rx="12.5" transform="rotate(-135 3155.82 822.423)" fill="#CBC3E2"/>
<rect x="3278.85" y="893.133" width="25" height="100" rx="12.5" transform="rotate(-45 3278.85 893.133)" fill="#CBC3E2"/>
<rect x="3297.24" y="963.844" width="25" height="100" rx="12.5" transform="rotate(-135 3297.24 963.844)" fill="#CBC3E2"/>
<rect x="3420.28" y="1034.55" width="25" height="100" rx="12.5" transform="rotate(-45 3420.28 1034.55)" fill="#CBC3E2"/>
<rect x="3438.66" y="1105.27" width="25" height="100" rx="12.5" transform="rotate(-135 3438.66 1105.27)" fill="#CBC3E2"/>
<rect x="3561.7" y="1175.98" width="25" height="100" rx="12.5" transform="rotate(-45 3561.7 1175.98)" fill="#CBC3E2"/>
<rect x="3580.08" y="1246.69" width="25" height="100" rx="12.5" transform="rotate(-135 3580.08 1246.69)" fill="#CBC3E2"/>
</svg>
